ISO-10303-21;
HEADER;
FILE_DESCRIPTION(('Shape Data from Truck'), '2;1');
FILE_NAME('', '2025-12-29 06:22:56.027257900', (('')), (('')), 'truck', '', '');
FILE_SCHEMA(('ISO-10303-042'));
ENDSEC;
DATA;
#1 = APPLICATION_PROTOCOL_DEFINITION('international standard', 'automotive_design', 2000, #2);
#2 = APPLICATION_CONTEXT('core data for automotive mechanical design processes');
#3 = SHAPE_DEFINITION_REPRESENTATION(#4, #10);
#4 = PRODUCT_DEFINITION_SHAPE('','', #5);
#5 = PRODUCT_DEFINITION('design','', #6, #9);
#6 = PRODUCT_DEFINITION_FORMATION('','', #7);
#7 = PRODUCT('','','', (#8));
#8 = PRODUCT_CONTEXT('', #2, 'mechanical');
#9 = PRODUCT_DEFINITION_CONTEXT('part definition', #2, 'design');
#10 = ADVANCED_BREP_SHAPE_REPRESENTATION('', (#16), #11);
#11 = (
    GEOMETRIC_REPRESENTATION_CONTEXT(3) 
    GLOBAL_UNCERTAINTY_ASSIGNED_CONTEXT((#15))
    GLOBAL_UNIT_ASSIGNED_CONTEXT((#12, #13, #14))
    REPRESENTATION_CONTEXT('Context #1', '3D Context with UNIT and UNCERTAINTY')
);
#12 = ( LENGTH_UNIT() NAMED_UNIT(*) SI_UNIT(.MILLI.,.METRE.) );
#13 = ( NAMED_UNIT(*) PLANE_ANGLE_UNIT() SI_UNIT($,.RADIAN.) );
#14 = ( NAMED_UNIT(*) SI_UNIT($,.STERADIAN.) SOLID_ANGLE_UNIT() );
#15 = UNCERTAINTY_MEASURE_WITH_UNIT(1.0E-6, #12, 'distance_accuracy_value','confusion accuracy');
#16 = MANIFOLD_SOLID_BREP('', #17);
#17 = CLOSED_SHELL('', (#18, #25, #32, #39, #46, #53, #65, #72, #79, #86, #97, #104, #111, #118, #125, #132, #144, #151, #158));
#18 = FACE_SURFACE('', (#19), #235, .F.);
#19 = FACE_BOUND('', #20, .F.);
#20 = EDGE_LOOP('', (#21, #22, #23, #24));
#21 = ORIENTED_EDGE('', *, *, #165, .T.);
#22 = ORIENTED_EDGE('', *, *, #166, .T.);
#23 = ORIENTED_EDGE('', *, *, #167, .T.);
#24 = ORIENTED_EDGE('', *, *, #168, .T.);
#25 = FACE_SURFACE('', (#26), #248, .T.);
#26 = FACE_BOUND('', #27, .T.);
#27 = EDGE_LOOP('', (#28, #29, #30, #31));
#28 = ORIENTED_EDGE('', *, *, #165, .T.);
#29 = ORIENTED_EDGE('', *, *, #169, .T.);
#30 = ORIENTED_EDGE('', *, *, #170, .F.);
#31 = ORIENTED_EDGE('', *, *, #171, .F.);
#32 = FACE_SURFACE('', (#33), #261, .T.);
#33 = FACE_BOUND('', #34, .T.);
#34 = EDGE_LOOP('', (#35, #36, #37, #38));
#35 = ORIENTED_EDGE('', *, *, #166, .T.);
#36 = ORIENTED_EDGE('', *, *, #172, .T.);
#37 = ORIENTED_EDGE('', *, *, #173, .F.);
#38 = ORIENTED_EDGE('', *, *, #169, .F.);
#39 = FACE_SURFACE('', (#40), #266, .T.);
#40 = FACE_BOUND('', #41, .T.);
#41 = EDGE_LOOP('', (#42, #43, #44, #45));
#42 = ORIENTED_EDGE('', *, *, #167, .T.);
#43 = ORIENTED_EDGE('', *, *, #174, .T.);
#44 = ORIENTED_EDGE('', *, *, #175, .F.);
#45 = ORIENTED_EDGE('', *, *, #172, .F.);
#46 = FACE_SURFACE('', (#47), #279, .T.);
#47 = FACE_BOUND('', #48, .T.);
#48 = EDGE_LOOP('', (#49, #50, #51, #52));
#49 = ORIENTED_EDGE('', *, *, #168, .T.);
#50 = ORIENTED_EDGE('', *, *, #171, .T.);
#51 = ORIENTED_EDGE('', *, *, #176, .F.);
#52 = ORIENTED_EDGE('', *, *, #174, .F.);
#53 = FACE_SURFACE('', (#54, #60), #284, .T.);
#54 = FACE_BOUND('', #55, .T.);
#55 = EDGE_LOOP('', (#56, #57, #58, #59));
#56 = ORIENTED_EDGE('', *, *, #170, .T.);
#57 = ORIENTED_EDGE('', *, *, #173, .T.);
#58 = ORIENTED_EDGE('', *, *, #175, .T.);
#59 = ORIENTED_EDGE('', *, *, #176, .T.);
#60 = FACE_BOUND('', #61, .T.);
#61 = EDGE_LOOP('', (#62, #63, #64));
#62 = ORIENTED_EDGE('', *, *, #177, .F.);
#63 = ORIENTED_EDGE('', *, *, #178, .F.);
#64 = ORIENTED_EDGE('', *, *, #179, .F.);
#65 = FACE_SURFACE('', (#66), #297, .T.);
#66 = FACE_BOUND('', #67, .T.);
#67 = EDGE_LOOP('', (#68, #69, #70, #71));
#68 = ORIENTED_EDGE('', *, *, #179, .T.);
#69 = ORIENTED_EDGE('', *, *, #180, .T.);
#70 = ORIENTED_EDGE('', *, *, #181, .F.);
#71 = ORIENTED_EDGE('', *, *, #182, .F.);
#72 = FACE_SURFACE('', (#73), #310, .T.);
#73 = FACE_BOUND('', #74, .T.);
#74 = EDGE_LOOP('', (#75, #76, #77, #78));
#75 = ORIENTED_EDGE('', *, *, #178, .T.);
#76 = ORIENTED_EDGE('', *, *, #183, .T.);
#77 = ORIENTED_EDGE('', *, *, #184, .F.);
#78 = ORIENTED_EDGE('', *, *, #180, .F.);
#79 = FACE_SURFACE('', (#80), #323, .T.);
#80 = FACE_BOUND('', #81, .T.);
#81 = EDGE_LOOP('', (#82, #83, #84, #85));
#82 = ORIENTED_EDGE('', *, *, #177, .T.);
#83 = ORIENTED_EDGE('', *, *, #182, .T.);
#84 = ORIENTED_EDGE('', *, *, #185, .F.);
#85 = ORIENTED_EDGE('', *, *, #183, .F.);
#86 = FACE_SURFACE('', (#87, #92), #336, .T.);
#87 = FACE_BOUND('', #88, .T.);
#88 = EDGE_LOOP('', (#89, #90, #91));
#89 = ORIENTED_EDGE('', *, *, #181, .T.);
#90 = ORIENTED_EDGE('', *, *, #184, .T.);
#91 = ORIENTED_EDGE('', *, *, #185, .T.);
#92 = FACE_BOUND('', #93, .T.);
#93 = EDGE_LOOP('', (#94, #95, #96));
#94 = ORIENTED_EDGE('', *, *, #186, .F.);
#95 = ORIENTED_EDGE('', *, *, #187, .F.);
#96 = ORIENTED_EDGE('', *, *, #188, .F.);
#97 = FACE_SURFACE('', (#98), #341, .T.);
#98 = FACE_BOUND('', #99, .T.);
#99 = EDGE_LOOP('', (#100, #101, #102, #103));
#100 = ORIENTED_EDGE('', *, *, #189, .T.);
#101 = ORIENTED_EDGE('', *, *, #190, .T.);
#102 = ORIENTED_EDGE('', *, *, #191, .T.);
#103 = ORIENTED_EDGE('', *, *, #192, .T.);
#104 = FACE_SURFACE('', (#105), #354, .F.);
#105 = FACE_BOUND('', #106, .F.);
#106 = EDGE_LOOP('', (#107, #108, #109, #110));
#107 = ORIENTED_EDGE('', *, *, #189, .T.);
#108 = ORIENTED_EDGE('', *, *, #193, .T.);
#109 = ORIENTED_EDGE('', *, *, #194, .F.);
#110 = ORIENTED_EDGE('', *, *, #195, .F.);
#111 = FACE_SURFACE('', (#112), #367, .F.);
#112 = FACE_BOUND('', #113, .F.);
#113 = EDGE_LOOP('', (#114, #115, #116, #117));
#114 = ORIENTED_EDGE('', *, *, #190, .T.);
#115 = ORIENTED_EDGE('', *, *, #196, .T.);
#116 = ORIENTED_EDGE('', *, *, #197, .F.);
#117 = ORIENTED_EDGE('', *, *, #193, .F.);
#118 = FACE_SURFACE('', (#119), #372, .F.);
#119 = FACE_BOUND('', #120, .F.);
#120 = EDGE_LOOP('', (#121, #122, #123, #124));
#121 = ORIENTED_EDGE('', *, *, #191, .T.);
#122 = ORIENTED_EDGE('', *, *, #198, .T.);
#123 = ORIENTED_EDGE('', *, *, #199, .F.);
#124 = ORIENTED_EDGE('', *, *, #196, .F.);
#125 = FACE_SURFACE('', (#126), #385, .F.);
#126 = FACE_BOUND('', #127, .F.);
#127 = EDGE_LOOP('', (#128, #129, #130, #131));
#128 = ORIENTED_EDGE('', *, *, #192, .T.);
#129 = ORIENTED_EDGE('', *, *, #195, .T.);
#130 = ORIENTED_EDGE('', *, *, #200, .F.);
#131 = ORIENTED_EDGE('', *, *, #198, .F.);
#132 = FACE_SURFACE('', (#133, #139), #390, .F.);
#133 = FACE_BOUND('', #134, .F.);
#134 = EDGE_LOOP('', (#135, #136, #137, #138));
#135 = ORIENTED_EDGE('', *, *, #194, .T.);
#136 = ORIENTED_EDGE('', *, *, #197, .T.);
#137 = ORIENTED_EDGE('', *, *, #199, .T.);
#138 = ORIENTED_EDGE('', *, *, #200, .T.);
#139 = FACE_BOUND('', #140, .F.);
#140 = EDGE_LOOP('', (#141, #142, #143));
#141 = ORIENTED_EDGE('', *, *, #201, .F.);
#142 = ORIENTED_EDGE('', *, *, #202, .F.);
#143 = ORIENTED_EDGE('', *, *, #203, .F.);
#144 = FACE_SURFACE('', (#145), #403, .F.);
#145 = FACE_BOUND('', #146, .F.);
#146 = EDGE_LOOP('', (#147, #148, #149, #150));
#147 = ORIENTED_EDGE('', *, *, #203, .T.);
#148 = ORIENTED_EDGE('', *, *, #204, .T.);
#149 = ORIENTED_EDGE('', *, *, #188, .F.);
#150 = ORIENTED_EDGE('', *, *, #205, .F.);
#151 = FACE_SURFACE('', (#152), #416, .F.);
#152 = FACE_BOUND('', #153, .F.);
#153 = EDGE_LOOP('', (#154, #155, #156, #157));
#154 = ORIENTED_EDGE('', *, *, #202, .T.);
#155 = ORIENTED_EDGE('', *, *, #206, .T.);
#156 = ORIENTED_EDGE('', *, *, #187, .F.);
#157 = ORIENTED_EDGE('', *, *, #204, .F.);
#158 = FACE_SURFACE('', (#159), #429, .F.);
#159 = FACE_BOUND('', #160, .F.);
#160 = EDGE_LOOP('', (#161, #162, #163, #164));
#161 = ORIENTED_EDGE('', *, *, #201, .T.);
#162 = ORIENTED_EDGE('', *, *, #205, .T.);
#163 = ORIENTED_EDGE('', *, *, #186, .F.);
#164 = ORIENTED_EDGE('', *, *, #206, .F.);
#165 = EDGE_CURVE('', #207, #208, #442, .T.);
#166 = EDGE_CURVE('', #208, #209, #449, .T.);
#167 = EDGE_CURVE('', #209, #210, #453, .T.);
#168 = EDGE_CURVE('', #210, #207, #460, .T.);
#169 = EDGE_CURVE('', #208, #211, #464, .T.);
#170 = EDGE_CURVE('', #212, #211, #468, .T.);
#171 = EDGE_CURVE('', #207, #212, #475, .T.);
#172 = EDGE_CURVE('', #209, #213, #479, .T.);
#173 = EDGE_CURVE('', #211, #213, #483, .T.);
#174 = EDGE_CURVE('', #210, #214, #487, .T.);
#175 = EDGE_CURVE('', #213, #214, #491, .T.);
#176 = EDGE_CURVE('', #214, #212, #498, .T.);
#177 = EDGE_CURVE('', #215, #216, #502, .T.);
#178 = EDGE_CURVE('', #217, #215, #509, .T.);
#179 = EDGE_CURVE('', #216, #217, #516, .T.);
#180 = EDGE_CURVE('', #217, #218, #523, .T.);
#181 = EDGE_CURVE('', #219, #218, #527, .T.);
#182 = EDGE_CURVE('', #216, #219, #534, .T.);
#183 = EDGE_CURVE('', #215, #220, #538, .T.);
#184 = EDGE_CURVE('', #218, #220, #542, .T.);
#185 = EDGE_CURVE('', #220, #219, #549, .T.);
#186 = EDGE_CURVE('', #221, #222, #556, .T.);
#187 = EDGE_CURVE('', #223, #221, #563, .T.);
#188 = EDGE_CURVE('', #222, #223, #570, .T.);
#189 = EDGE_CURVE('', #224, #225, #577, .T.);
#190 = EDGE_CURVE('', #225, #226, #584, .T.);
#191 = EDGE_CURVE('', #226, #227, #588, .T.);
#192 = EDGE_CURVE('', #227, #224, #595, .T.);
#193 = EDGE_CURVE('', #225, #228, #599, .T.);
#194 = EDGE_CURVE('', #229, #228, #603, .T.);
#195 = EDGE_CURVE('', #224, #229, #610, .T.);
#196 = EDGE_CURVE('', #226, #230, #614, .T.);
#197 = EDGE_CURVE('', #228, #230, #618, .T.);
#198 = EDGE_CURVE('', #227, #231, #622, .T.);
#199 = EDGE_CURVE('', #230, #231, #626, .T.);
#200 = EDGE_CURVE('', #231, #229, #633, .T.);
#201 = EDGE_CURVE('', #232, #233, #637, .T.);
#202 = EDGE_CURVE('', #234, #232, #644, .T.);
#203 = EDGE_CURVE('', #233, #234, #651, .T.);
#204 = EDGE_CURVE('', #234, #223, #658, .T.);
#205 = EDGE_CURVE('', #233, #222, #662, .T.);
#206 = EDGE_CURVE('', #232, #221, #666, .T.);
#207 = VERTEX_POINT('', #670);
#208 = VERTEX_POINT('', #671);
#209 = VERTEX_POINT('', #672);
#210 = VERTEX_POINT('', #673);
#211 = VERTEX_POINT('', #674);
#212 = VERTEX_POINT('', #675);
#213 = VERTEX_POINT('', #676);
#214 = VERTEX_POINT('', #677);
#215 = VERTEX_POINT('', #678);
#216 = VERTEX_POINT('', #679);
#217 = VERTEX_POINT('', #680);
#218 = VERTEX_POINT('', #681);
#219 = VERTEX_POINT('', #682);
#220 = VERTEX_POINT('', #683);
#221 = VERTEX_POINT('', #684);
#222 = VERTEX_POINT('', #685);
#223 = VERTEX_POINT('', #686);
#224 = VERTEX_POINT('', #687);
#225 = VERTEX_POINT('', #688);
#226 = VERTEX_POINT('', #689);
#227 = VERTEX_POINT('', #690);
#228 = VERTEX_POINT('', #691);
#229 = VERTEX_POINT('', #692);
#230 = VERTEX_POINT('', #693);
#231 = VERTEX_POINT('', #694);
#232 = VERTEX_POINT('', #695);
#233 = VERTEX_POINT('', #696);
#234 = VERTEX_POINT('', #697);
#235 = (
    BOUNDED_SURFACE()
    B_SPLINE_SURFACE(2, 1, ((#236, #237), (#238, #239), (#240, #241), (#242, #243), (#244, #245), (#246, #247)), .UNSPECIFIED., .U., .U., .U.)
    B_SPLINE_SURFACE_WITH_KNOTS((3, 1, 1, 1, 3), (2, 2), (0.0, 0.25, 0.5, 0.75, 1.0), (0.0, 1.0), .UNSPECIFIED.)
    GEOMETRIC_REPRESENTATION_ITEM()
    RATIONAL_B_SPLINE_SURFACE(((1.0, 1.0), (0.9587155963302753, 0.9587155963302753), (0.9174311926605505, 0.9174311926605505), (0.9174311926605505, 0.9174311926605505), (0.9587155963302753, 0.9587155963302753), (1.0, 1.0)))
    REPRESENTATION_ITEM('')
    SURFACE()
);
#236 = CARTESIAN_POINT('', (-0.5, -0.7, 0.15000000000000002));
#237 = CARTESIAN_POINT('', (-0.499999999999999, -0.7, -0.15000000000000074));
#238 = CARTESIAN_POINT('', (-0.3911483253588518, -0.7, 0.22177033492822967));
#239 = CARTESIAN_POINT('', (-0.39114832535885075, -0.7, -0.2217703349282302));
#240 = CARTESIAN_POINT('', (-0.13625000000000043, -0.7, 0.3000000000000001));
#241 = CARTESIAN_POINT('', (-0.1362499999999993, -0.7, -0.30000000000000027));
#242 = CARTESIAN_POINT('', (0.13624999999999932, -0.7, 0.30000000000000027));
#243 = CARTESIAN_POINT('', (0.13625000000000045, -0.7, -0.3000000000000001));
#244 = CARTESIAN_POINT('', (0.39114832535885075, -0.7, 0.22177033492823015));
#245 = CARTESIAN_POINT('', (0.3911483253588518, -0.7, -0.22177033492822962));
#246 = CARTESIAN_POINT('', (0.499999999999999, -0.7, 0.1500000000000007));
#247 = CARTESIAN_POINT('', (0.5, -0.7, -0.14999999999999997));
#248 = (
    BOUNDED_SURFACE()
    B_SPLINE_SURFACE(2, 1, ((#249, #250), (#251, #252), (#253, #254), (#255, #256), (#257, #258), (#259, #260)), .UNSPECIFIED., .U., .U., .U.)
    B_SPLINE_SURFACE_WITH_KNOTS((3, 1, 1, 1, 3), (2, 2), (0.0, 0.25, 0.5, 0.75, 1.0), (0.0, 1.0), .UNSPECIFIED.)
    GEOMETRIC_REPRESENTATION_ITEM()
    RATIONAL_B_SPLINE_SURFACE(((1.0, 1.0), (0.9587155963302753, 0.9587155963302753), (0.9174311926605505, 0.9174311926605505), (0.9174311926605505, 0.9174311926605505), (0.9587155963302753, 0.9587155963302753), (1.0, 1.0)))
    REPRESENTATION_ITEM('')
    SURFACE()
);
#249 = CARTESIAN_POINT('', (-0.5, -0.7, 0.15000000000000002));
#250 = CARTESIAN_POINT('', (-0.5, 0.7, 0.15000000000000002));
#251 = CARTESIAN_POINT('', (-0.3911483253588518, -0.7, 0.22177033492822967));
#252 = CARTESIAN_POINT('', (-0.3911483253588518, 0.7, 0.22177033492822967));
#253 = CARTESIAN_POINT('', (-0.13625000000000043, -0.7, 0.3000000000000001));
#254 = CARTESIAN_POINT('', (-0.13625000000000043, 0.7, 0.3000000000000001));
#255 = CARTESIAN_POINT('', (0.13624999999999932, -0.7, 0.30000000000000027));
#256 = CARTESIAN_POINT('', (0.13624999999999932, 0.7, 0.30000000000000027));
#257 = CARTESIAN_POINT('', (0.39114832535885075, -0.7, 0.22177033492823015));
#258 = CARTESIAN_POINT('', (0.39114832535885075, 0.7, 0.22177033492823015));
#259 = CARTESIAN_POINT('', (0.499999999999999, -0.7, 0.1500000000000007));
#260 = CARTESIAN_POINT('', (0.499999999999999, 0.7, 0.1500000000000007));
#261 = PLANE('', #262);
#262 = AXIS2_PLACEMENT_3D('', #263, #264, #265);
#263 = CARTESIAN_POINT('', (0.5, -0.7, 0.15));
#264 = DIRECTION('', (1.0, -0.0, 0.0));
#265 = DIRECTION('', (0.0, 0.0, -1.0));
#266 = (
    BOUNDED_SURFACE()
    B_SPLINE_SURFACE(2, 1, ((#267, #268), (#269, #270), (#271, #272), (#273, #274), (#275, #276), (#277, #278)), .UNSPECIFIED., .U., .U., .U.)
    B_SPLINE_SURFACE_WITH_KNOTS((3, 1, 1, 1, 3), (2, 2), (0.0, 0.25, 0.5, 0.75, 1.0), (0.0, 1.0), .UNSPECIFIED.)
    GEOMETRIC_REPRESENTATION_ITEM()
    RATIONAL_B_SPLINE_SURFACE(((1.0, 1.0), (0.9587155963302753, 0.9587155963302753), (0.9174311926605505, 0.9174311926605505), (0.9174311926605505, 0.9174311926605505), (0.9587155963302753, 0.9587155963302753), (1.0, 1.0)))
    REPRESENTATION_ITEM('')
    SURFACE()
);
#267 = CARTESIAN_POINT('', (0.5, -0.7, -0.14999999999999997));
#268 = CARTESIAN_POINT('', (0.5, 0.7, -0.14999999999999997));
#269 = CARTESIAN_POINT('', (0.3911483253588518, -0.7, -0.22177033492822962));
#270 = CARTESIAN_POINT('', (0.3911483253588518, 0.7, -0.22177033492822962));
#271 = CARTESIAN_POINT('', (0.13625000000000045, -0.7, -0.3000000000000001));
#272 = CARTESIAN_POINT('', (0.13625000000000045, 0.7, -0.3000000000000001));
#273 = CARTESIAN_POINT('', (-0.1362499999999993, -0.7, -0.30000000000000027));
#274 = CARTESIAN_POINT('', (-0.1362499999999993, 0.7, -0.30000000000000027));
#275 = CARTESIAN_POINT('', (-0.39114832535885075, -0.7, -0.2217703349282302));
#276 = CARTESIAN_POINT('', (-0.39114832535885075, 0.7, -0.2217703349282302));
#277 = CARTESIAN_POINT('', (-0.499999999999999, -0.7, -0.15000000000000074));
#278 = CARTESIAN_POINT('', (-0.499999999999999, 0.7, -0.15000000000000074));
#279 = PLANE('', #280);
#280 = AXIS2_PLACEMENT_3D('', #281, #282, #283);
#281 = CARTESIAN_POINT('', (-0.5, -0.7, -0.15000000000000005));
#282 = DIRECTION('', (-1.0, 0.0, 0.0));
#283 = DIRECTION('', (0.0, 0.0, 1.0));
#284 = (
    BOUNDED_SURFACE()
    B_SPLINE_SURFACE(2, 1, ((#285, #286), (#287, #288), (#289, #290), (#291, #292), (#293, #294), (#295, #296)), .UNSPECIFIED., .U., .U., .U.)
    B_SPLINE_SURFACE_WITH_KNOTS((3, 1, 1, 1, 3), (2, 2), (0.0, 0.25, 0.5, 0.75, 1.0), (0.0, 1.0), .UNSPECIFIED.)
    GEOMETRIC_REPRESENTATION_ITEM()
    RATIONAL_B_SPLINE_SURFACE(((1.0, 1.0), (0.9587155963302753, 0.9587155963302753), (0.9174311926605505, 0.9174311926605505), (0.9174311926605505, 0.9174311926605505), (0.9587155963302753, 0.9587155963302753), (1.0, 1.0)))
    REPRESENTATION_ITEM('')
    SURFACE()
);
#285 = CARTESIAN_POINT('', (-0.5, 0.7, 0.15000000000000002));
#286 = CARTESIAN_POINT('', (-0.499999999999999, 0.7, -0.15000000000000074));
#287 = CARTESIAN_POINT('', (-0.3911483253588518, 0.7, 0.22177033492822967));
#288 = CARTESIAN_POINT('', (-0.39114832535885075, 0.7, -0.2217703349282302));
#289 = CARTESIAN_POINT('', (-0.13625000000000043, 0.7, 0.3000000000000001));
#290 = CARTESIAN_POINT('', (-0.1362499999999993, 0.7, -0.30000000000000027));
#291 = CARTESIAN_POINT('', (0.13624999999999932, 0.7, 0.30000000000000027));
#292 = CARTESIAN_POINT('', (0.13625000000000045, 0.7, -0.3000000000000001));
#293 = CARTESIAN_POINT('', (0.39114832535885075, 0.7, 0.22177033492823015));
#294 = CARTESIAN_POINT('', (0.3911483253588518, 0.7, -0.22177033492822962));
#295 = CARTESIAN_POINT('', (0.499999999999999, 0.7, 0.1500000000000007));
#296 = CARTESIAN_POINT('', (0.5, 0.7, -0.14999999999999997));
#297 = (
    BOUNDED_SURFACE()
    B_SPLINE_SURFACE(2, 1, ((#298, #299), (#300, #301), (#302, #303), (#304, #305), (#306, #307), (#308, #309)), .UNSPECIFIED., .U., .U., .U.)
    B_SPLINE_SURFACE_WITH_KNOTS((3, 1, 1, 1, 3), (2, 2), (0.0, 0.25, 0.5, 0.75, 1.0), (0.0, 1.0), .UNSPECIFIED.)
    GEOMETRIC_REPRESENTATION_ITEM()
    RATIONAL_B_SPLINE_SURFACE(((1.0, 1.0), (0.875, 0.875), (0.75, 0.75), (0.75, 0.75), (0.875, 0.875), (1.0, 1.0)))
    REPRESENTATION_ITEM('')
    SURFACE()
);
#298 = CARTESIAN_POINT('', (0.0, 0.7, 0.15));
#299 = CARTESIAN_POINT('', (0.0, 0.84, 0.15));
#300 = CARTESIAN_POINT('', (0.037115374447904505, 0.7, 0.15));
#301 = CARTESIAN_POINT('', (0.037115374447904505, 0.8399999999999999, 0.15));
#302 = CARTESIAN_POINT('', (0.10825317547305481, 0.6999999999999998, 0.11249999999999999));
#303 = CARTESIAN_POINT('', (0.10825317547305481, 0.8399999999999999, 0.11249999999999999));
#304 = CARTESIAN_POINT('', (0.15155444566227674, 0.6999999999999998, 0.03750000000000003));
#305 = CARTESIAN_POINT('', (0.15155444566227674, 0.8399999999999999, 0.03750000000000003));
#306 = CARTESIAN_POINT('', (0.14846149779161805, 0.7, -0.042857142857142816));
#307 = CARTESIAN_POINT('', (0.14846149779161805, 0.8399999999999999, -0.042857142857142816));
#308 = CARTESIAN_POINT('', (0.1299038105676658, 0.7, -0.07499999999999997));
#309 = CARTESIAN_POINT('', (0.1299038105676658, 0.84, -0.07499999999999997));
#310 = (
    BOUNDED_SURFACE()
    B_SPLINE_SURFACE(2, 1, ((#311, #312), (#313, #314), (#315, #316), (#317, #318), (#319, #320), (#321, #322)), .UNSPECIFIED., .U., .U., .U.)
    B_SPLINE_SURFACE_WITH_KNOTS((3, 1, 1, 1, 3), (2, 2), (0.0, 0.25, 0.5, 0.75, 1.0), (0.0, 1.0), .UNSPECIFIED.)
    GEOMETRIC_REPRESENTATION_ITEM()
    RATIONAL_B_SPLINE_SURFACE(((1.0, 1.0), (0.875, 0.875), (0.75, 0.75), (0.75, 0.75), (0.875, 0.875), (1.0, 1.0)))
    REPRESENTATION_ITEM('')
    SURFACE()
);
#311 = CARTESIAN_POINT('', (0.1299038105676658, 0.7, -0.07499999999999997));
#312 = CARTESIAN_POINT('', (0.1299038105676658, 0.84, -0.07499999999999997));
#313 = CARTESIAN_POINT('', (0.11134612334371356, 0.7, -0.10714285714285711));
#314 = CARTESIAN_POINT('', (0.11134612334371356, 0.8399999999999999, -0.10714285714285711));
#315 = CARTESIAN_POINT('', (0.04330127018922197, 0.6999999999999998, -0.15));
#316 = CARTESIAN_POINT('', (0.04330127018922197, 0.8399999999999999, -0.15));
#317 = CARTESIAN_POINT('', (-0.04330127018922186, 0.6999999999999998, -0.15));
#318 = CARTESIAN_POINT('', (-0.04330127018922186, 0.8399999999999999, -0.15));
#319 = CARTESIAN_POINT('', (-0.11134612334371348, 0.7, -0.10714285714285718));
#320 = CARTESIAN_POINT('', (-0.11134612334371348, 0.8399999999999999, -0.10714285714285718));
#321 = CARTESIAN_POINT('', (-0.12990381056766576, 0.7, -0.07500000000000004));
#322 = CARTESIAN_POINT('', (-0.12990381056766576, 0.84, -0.07500000000000004));
#323 = (
    BOUNDED_SURFACE()
    B_SPLINE_SURFACE(2, 1, ((#324, #325), (#326, #327), (#328, #329), (#330, #331), (#332, #333), (#334, #335)), .UNSPECIFIED., .U., .U., .U.)
    B_SPLINE_SURFACE_WITH_KNOTS((3, 1, 1, 1, 3), (2, 2), (0.0, 0.25, 0.5, 0.75, 1.0), (0.0, 1.0), .UNSPECIFIED.)
    GEOMETRIC_REPRESENTATION_ITEM()
    RATIONAL_B_SPLINE_SURFACE(((1.0, 1.0), (0.875, 0.875), (0.75, 0.75), (0.75, 0.75), (0.875, 0.875), (1.0, 1.0)))
    REPRESENTATION_ITEM('')
    SURFACE()
);
#324 = CARTESIAN_POINT('', (-0.12990381056766576, 0.7, -0.07500000000000004));
#325 = CARTESIAN_POINT('', (-0.12990381056766576, 0.84, -0.07500000000000004));
#326 = CARTESIAN_POINT('', (-0.14846149779161802, 0.7, -0.04285714285714291));
#327 = CARTESIAN_POINT('', (-0.14846149779161802, 0.8399999999999999, -0.04285714285714291));
#328 = CARTESIAN_POINT('', (-0.15155444566227674, 0.6999999999999998, 0.03749999999999993));
#329 = CARTESIAN_POINT('', (-0.15155444566227674, 0.8399999999999999, 0.03749999999999993));
#330 = CARTESIAN_POINT('', (-0.10825317547305487, 0.6999999999999998, 0.11249999999999992));
#331 = CARTESIAN_POINT('', (-0.10825317547305487, 0.8399999999999999, 0.11249999999999992));
#332 = CARTESIAN_POINT('', (-0.037115374447904595, 0.7, 0.14999999999999994));
#333 = CARTESIAN_POINT('', (-0.037115374447904595, 0.8399999999999999, 0.14999999999999994));
#334 = CARTESIAN_POINT('', (-8.3266726847E-17, 0.7, 0.14999999999999997));
#335 = CARTESIAN_POINT('', (-8.3266726847E-17, 0.84, 0.14999999999999997));
#336 = PLANE('', #337);
#337 = AXIS2_PLACEMENT_3D('', #338, #339, #340);
#338 = CARTESIAN_POINT('', (0.15155444566227674, 0.8399999999999976, -0.15));
#339 = DIRECTION('', (1.4651144277E-15, 0.9999999999999999, -6.6613381478E-15));
#340 = DIRECTION('', (-1.0, 1.4651144277E-15, 0.0));
#341 = (
    BOUNDED_SURFACE()
    B_SPLINE_SURFACE(2, 1, ((#342, #343), (#344, #345), (#346, #347), (#348, #349), (#350, #351), (#352, #353)), .UNSPECIFIED., .U., .U., .U.)
    B_SPLINE_SURFACE_WITH_KNOTS((3, 1, 1, 1, 3), (2, 2), (0.0, 0.25, 0.5, 0.75, 1.0), (0.0, 1.0), .UNSPECIFIED.)
    GEOMETRIC_REPRESENTATION_ITEM()
    RATIONAL_B_SPLINE_SURFACE(((1.0, 1.0), (0.9616710875331566, 0.9616710875331564), (0.9233421750663131, 0.923342175066313), (0.923342175066313, 0.9233421750663131), (0.9616710875331564, 0.9616710875331566), (1.0, 1.0)))
    REPRESENTATION_ITEM('')
    SURFACE()
);
#342 = CARTESIAN_POINT('', (-0.472, -0.6719999999999999, 0.136));
#343 = CARTESIAN_POINT('', (-0.472, -0.6719999999999999, -0.13600000000000018));
#344 = CARTESIAN_POINT('', (-0.3681092263136119, -0.6719999999999999, 0.20128975313749833));
#345 = CARTESIAN_POINT('', (-0.36810922631361187, -0.6719999999999999, -0.2012897531374984));
#346 = CARTESIAN_POINT('', (-0.12779661016949156, -0.6719999999999999, 0.27199999999999985));
#347 = CARTESIAN_POINT('', (-0.12779661016949137, -0.6719999999999999, -0.27200000000000013));
#348 = CARTESIAN_POINT('', (0.1277966101694914, -0.6719999999999999, 0.27200000000000013));
#349 = CARTESIAN_POINT('', (0.1277966101694916, -0.6719999999999999, -0.27199999999999985));
#350 = CARTESIAN_POINT('', (0.36810922631361187, -0.6719999999999999, 0.20128975313749833));
#351 = CARTESIAN_POINT('', (0.3681092263136119, -0.6719999999999999, -0.20128975313749825));
#352 = CARTESIAN_POINT('', (0.472, -0.6719999999999999, 0.13600000000000012));
#353 = CARTESIAN_POINT('', (0.472, -0.6719999999999999, -0.13599999999999995));
#354 = (
    BOUNDED_SURFACE()
    B_SPLINE_SURFACE(2, 1, ((#355, #356), (#357, #358), (#359, #360), (#361, #362), (#363, #364), (#365, #366)), .UNSPECIFIED., .U., .U., .U.)
    B_SPLINE_SURFACE_WITH_KNOTS((3, 1, 1, 1, 3), (2, 2), (0.0, 0.25, 0.5, 0.75, 1.0), (0.0, 1.0), .UNSPECIFIED.)
    GEOMETRIC_REPRESENTATION_ITEM()
    RATIONAL_B_SPLINE_SURFACE(((1.0, 1.0), (0.9616710875331566, 0.9616710875331566), (0.9233421750663131, 0.9233421750663131), (0.923342175066313, 0.923342175066313), (0.9616710875331564, 0.9616710875331564), (1.0, 1.0)))
    REPRESENTATION_ITEM('')
    SURFACE()
);
#355 = CARTESIAN_POINT('', (-0.472, -0.6719999999999999, 0.136));
#356 = CARTESIAN_POINT('', (-0.472, 0.6719999999999999, 0.136));
#357 = CARTESIAN_POINT('', (-0.3681092263136119, -0.6719999999999999, 0.20128975313749833));
#358 = CARTESIAN_POINT('', (-0.3681092263136119, 0.6719999999999999, 0.20128975313749833));
#359 = CARTESIAN_POINT('', (-0.12779661016949156, -0.6719999999999999, 0.27199999999999985));
#360 = CARTESIAN_POINT('', (-0.12779661016949156, 0.6719999999999999, 0.27199999999999985));
#361 = CARTESIAN_POINT('', (0.1277966101694914, -0.6719999999999999, 0.27200000000000013));
#362 = CARTESIAN_POINT('', (0.1277966101694914, 0.6719999999999999, 0.27200000000000013));
#363 = CARTESIAN_POINT('', (0.36810922631361187, -0.6719999999999999, 0.20128975313749833));
#364 = CARTESIAN_POINT('', (0.36810922631361187, 0.6719999999999999, 0.20128975313749833));
#365 = CARTESIAN_POINT('', (0.472, -0.6719999999999999, 0.13600000000000012));
#366 = CARTESIAN_POINT('', (0.472, 0.6719999999999999, 0.13600000000000012));
#367 = PLANE('', #368);
#368 = AXIS2_PLACEMENT_3D('', #369, #370, #371);
#369 = CARTESIAN_POINT('', (0.472, -0.6719999999999999, 0.136));
#370 = DIRECTION('', (1.0, -0.0, 0.0));
#371 = DIRECTION('', (0.0, 0.0, -1.0));
#372 = (
    BOUNDED_SURFACE()
    B_SPLINE_SURFACE(2, 1, ((#373, #374), (#375, #376), (#377, #378), (#379, #380), (#381, #382), (#383, #384)), .UNSPECIFIED., .U., .U., .U.)
    B_SPLINE_SURFACE_WITH_KNOTS((3, 1, 1, 1, 3), (2, 2), (0.0, 0.25, 0.5, 0.75, 1.0), (0.0, 1.0), .UNSPECIFIED.)
    GEOMETRIC_REPRESENTATION_ITEM()
    RATIONAL_B_SPLINE_SURFACE(((1.0, 1.0), (0.9616710875331566, 0.9616710875331566), (0.9233421750663131, 0.9233421750663131), (0.923342175066313, 0.923342175066313), (0.9616710875331564, 0.9616710875331564), (1.0, 1.0)))
    REPRESENTATION_ITEM('')
    SURFACE()
);
#373 = CARTESIAN_POINT('', (0.472, -0.6719999999999999, -0.13599999999999995));
#374 = CARTESIAN_POINT('', (0.472, 0.6719999999999999, -0.13599999999999995));
#375 = CARTESIAN_POINT('', (0.3681092263136119, -0.6719999999999999, -0.20128975313749825));
#376 = CARTESIAN_POINT('', (0.3681092263136119, 0.6719999999999999, -0.20128975313749825));
#377 = CARTESIAN_POINT('', (0.1277966101694916, -0.6719999999999999, -0.27199999999999985));
#378 = CARTESIAN_POINT('', (0.1277966101694916, 0.6719999999999999, -0.27199999999999985));
#379 = CARTESIAN_POINT('', (-0.12779661016949137, -0.6719999999999999, -0.27200000000000013));
#380 = CARTESIAN_POINT('', (-0.12779661016949137, 0.6719999999999999, -0.27200000000000013));
#381 = CARTESIAN_POINT('', (-0.36810922631361187, -0.6719999999999999, -0.2012897531374984));
#382 = CARTESIAN_POINT('', (-0.36810922631361187, 0.6719999999999999, -0.2012897531374984));
#383 = CARTESIAN_POINT('', (-0.472, -0.6719999999999999, -0.13600000000000018));
#384 = CARTESIAN_POINT('', (-0.472, 0.6719999999999999, -0.13600000000000018));
#385 = PLANE('', #386);
#386 = AXIS2_PLACEMENT_3D('', #387, #388, #389);
#387 = CARTESIAN_POINT('', (-0.472, -0.6719999999999999, -0.13600000000000007));
#388 = DIRECTION('', (-0.9999999999999999, 0.0, 0.0));
#389 = DIRECTION('', (0.0, 0.0, 1.0));
#390 = (
    BOUNDED_SURFACE()
    B_SPLINE_SURFACE(2, 1, ((#391, #392), (#393, #394), (#395, #396), (#397, #398), (#399, #400), (#401, #402)), .UNSPECIFIED., .U., .U., .U.)
    B_SPLINE_SURFACE_WITH_KNOTS((3, 1, 1, 1, 3), (2, 2), (0.0, 0.25, 0.5, 0.75, 1.0), (0.0, 1.0), .UNSPECIFIED.)
    GEOMETRIC_REPRESENTATION_ITEM()
    RATIONAL_B_SPLINE_SURFACE(((1.0, 1.0), (0.9616710875331566, 0.9616710875331564), (0.9233421750663131, 0.923342175066313), (0.923342175066313, 0.9233421750663131), (0.9616710875331564, 0.9616710875331566), (1.0, 1.0)))
    REPRESENTATION_ITEM('')
    SURFACE()
);
#391 = CARTESIAN_POINT('', (-0.472, 0.6719999999999999, 0.136));
#392 = CARTESIAN_POINT('', (-0.472, 0.6719999999999999, -0.13600000000000018));
#393 = CARTESIAN_POINT('', (-0.3681092263136119, 0.6719999999999999, 0.20128975313749833));
#394 = CARTESIAN_POINT('', (-0.36810922631361187, 0.6719999999999999, -0.2012897531374984));
#395 = CARTESIAN_POINT('', (-0.12779661016949156, 0.6719999999999999, 0.27199999999999985));
#396 = CARTESIAN_POINT('', (-0.12779661016949137, 0.6719999999999999, -0.27200000000000013));
#397 = CARTESIAN_POINT('', (0.1277966101694914, 0.6719999999999999, 0.27200000000000013));
#398 = CARTESIAN_POINT('', (0.1277966101694916, 0.6719999999999999, -0.27199999999999985));
#399 = CARTESIAN_POINT('', (0.36810922631361187, 0.6719999999999999, 0.20128975313749833));
#400 = CARTESIAN_POINT('', (0.3681092263136119, 0.6719999999999999, -0.20128975313749825));
#401 = CARTESIAN_POINT('', (0.472, 0.6719999999999999, 0.13600000000000012));
#402 = CARTESIAN_POINT('', (0.472, 0.6719999999999999, -0.13599999999999995));
#403 = (
    BOUNDED_SURFACE()
    B_SPLINE_SURFACE(2, 1, ((#404, #405), (#406, #407), (#408, #409), (#410, #411), (#412, #413), (#414, #415)), .UNSPECIFIED., .U., .U., .U.)
    B_SPLINE_SURFACE_WITH_KNOTS((3, 1, 1, 1, 3), (2, 2), (0.0, 0.25, 0.5, 0.75, 1.0), (0.0, 1.0), .UNSPECIFIED.)
    GEOMETRIC_REPRESENTATION_ITEM()
    RATIONAL_B_SPLINE_SURFACE(((1.0, 1.0), (0.875, 0.875), (0.75, 0.75), (0.75, 0.75), (0.875, 0.875), (1.0, 1.0)))
    REPRESENTATION_ITEM('')
    SURFACE()
);
#404 = CARTESIAN_POINT('', (0.0, 0.6719999999999999, 0.122));
#405 = CARTESIAN_POINT('', (0.0, 0.8399999999999999, 0.122));
#406 = CARTESIAN_POINT('', (0.030187171217628993, 0.6719999999999999, 0.122));
#407 = CARTESIAN_POINT('', (0.030187171217628993, 0.84, 0.122));
#408 = CARTESIAN_POINT('', (0.08804591605141791, 0.672, 0.09149999999999998));
#409 = CARTESIAN_POINT('', (0.08804591605141791, 0.84, 0.09149999999999998));
#410 = CARTESIAN_POINT('', (0.12326428247198508, 0.672, 0.030500000000000027));
#411 = CARTESIAN_POINT('', (0.12326428247198508, 0.84, 0.030500000000000027));
#412 = CARTESIAN_POINT('', (0.12074868487051602, 0.6719999999999999, -0.03485714285714282));
#413 = CARTESIAN_POINT('', (0.12074868487051602, 0.84, -0.03485714285714282));
#414 = CARTESIAN_POINT('', (0.10565509926170152, 0.6719999999999999, -0.06099999999999997));
#415 = CARTESIAN_POINT('', (0.10565509926170152, 0.8399999999999999, -0.06099999999999997));
#416 = (
    BOUNDED_SURFACE()
    B_SPLINE_SURFACE(2, 1, ((#417, #418), (#419, #420), (#421, #422), (#423, #424), (#425, #426), (#427, #428)), .UNSPECIFIED., .U., .U., .U.)
    B_SPLINE_SURFACE_WITH_KNOTS((3, 1, 1, 1, 3), (2, 2), (0.0, 0.25, 0.5, 0.75, 1.0), (0.0, 1.0), .UNSPECIFIED.)
    GEOMETRIC_REPRESENTATION_ITEM()
    RATIONAL_B_SPLINE_SURFACE(((1.0, 1.0), (0.875, 0.875), (0.75, 0.75), (0.75, 0.75), (0.875, 0.875), (1.0, 1.0)))
    REPRESENTATION_ITEM('')
    SURFACE()
);
#417 = CARTESIAN_POINT('', (0.10565509926170152, 0.6719999999999999, -0.06099999999999997));
#418 = CARTESIAN_POINT('', (0.10565509926170152, 0.8399999999999999, -0.06099999999999997));
#419 = CARTESIAN_POINT('', (0.09056151365288702, 0.6719999999999999, -0.0871428571428571));
#420 = CARTESIAN_POINT('', (0.09056151365288702, 0.84, -0.0871428571428571));
#421 = CARTESIAN_POINT('', (0.035218366420567214, 0.672, -0.12199999999999996));
#422 = CARTESIAN_POINT('', (0.035218366420567214, 0.84, -0.12199999999999996));
#423 = CARTESIAN_POINT('', (-0.03521836642056711, 0.672, -0.122));
#424 = CARTESIAN_POINT('', (-0.03521836642056711, 0.84, -0.122));
#425 = CARTESIAN_POINT('', (-0.09056151365288696, 0.6719999999999999, -0.08714285714285716));
#426 = CARTESIAN_POINT('', (-0.09056151365288696, 0.84, -0.08714285714285716));
#427 = CARTESIAN_POINT('', (-0.10565509926170147, 0.6719999999999999, -0.06100000000000004));
#428 = CARTESIAN_POINT('', (-0.10565509926170147, 0.8399999999999999, -0.06100000000000004));
#429 = (
    BOUNDED_SURFACE()
    B_SPLINE_SURFACE(2, 1, ((#430, #431), (#432, #433), (#434, #435), (#436, #437), (#438, #439), (#440, #441)), .UNSPECIFIED., .U., .U., .U.)
    B_SPLINE_SURFACE_WITH_KNOTS((3, 1, 1, 1, 3), (2, 2), (0.0, 0.25, 0.5, 0.75, 1.0), (0.0, 1.0), .UNSPECIFIED.)
    GEOMETRIC_REPRESENTATION_ITEM()
    RATIONAL_B_SPLINE_SURFACE(((1.0, 1.0), (0.875, 0.875), (0.75, 0.75), (0.75, 0.75), (0.875, 0.875), (1.0, 1.0)))
    REPRESENTATION_ITEM('')
    SURFACE()
);
#430 = CARTESIAN_POINT('', (-0.10565509926170147, 0.6719999999999999, -0.06100000000000004));
#431 = CARTESIAN_POINT('', (-0.10565509926170147, 0.8399999999999999, -0.06100000000000004));
#432 = CARTESIAN_POINT('', (-0.12074868487051597, 0.6719999999999999, -0.03485714285714291));
#433 = CARTESIAN_POINT('', (-0.12074868487051597, 0.84, -0.03485714285714291));
#434 = CARTESIAN_POINT('', (-0.1232642824719851, 0.672, 0.030499999999999926));
#435 = CARTESIAN_POINT('', (-0.1232642824719851, 0.84, 0.030499999999999926));
#436 = CARTESIAN_POINT('', (-0.08804591605141797, 0.672, 0.09149999999999991));
#437 = CARTESIAN_POINT('', (-0.08804591605141797, 0.84, 0.09149999999999991));
#438 = CARTESIAN_POINT('', (-0.030187171217629084, 0.6719999999999999, 0.12199999999999996));
#439 = CARTESIAN_POINT('', (-0.030187171217629084, 0.84, 0.12199999999999996));
#440 = CARTESIAN_POINT('', (-8.3266726847E-17, 0.6719999999999999, 0.12199999999999997));
#441 = CARTESIAN_POINT('', (-8.3266726847E-17, 0.8399999999999999, 0.12199999999999997));
#442 = (
    BOUNDED_CURVE()
    B_SPLINE_CURVE(2, (#443, #444, #445, #446, #447, #448), .UNSPECIFIED., .U., .U.)
    B_SPLINE_CURVE_WITH_KNOTS((3, 1, 1, 1, 3), (0.0, 0.25, 0.5, 0.75, 1.0), .UNSPECIFIED.)
    CURVE()
    GEOMETRIC_REPRESENTATION_ITEM()
    RATIONAL_B_SPLINE_CURVE((1.0, 0.9587155963302753, 0.9174311926605505, 0.9174311926605505, 0.9587155963302753, 1.0))
    REPRESENTATION_ITEM('')
);
#443 = CARTESIAN_POINT('', (-0.5, -0.7, 0.15000000000000002));
#444 = CARTESIAN_POINT('', (-0.3911483253588518, -0.7, 0.22177033492822967));
#445 = CARTESIAN_POINT('', (-0.13625000000000043, -0.7, 0.3000000000000001));
#446 = CARTESIAN_POINT('', (0.13624999999999932, -0.7, 0.30000000000000027));
#447 = CARTESIAN_POINT('', (0.39114832535885075, -0.7, 0.22177033492823015));
#448 = CARTESIAN_POINT('', (0.499999999999999, -0.7, 0.1500000000000007));
#449 = LINE('', #450, #451);
#450 = CARTESIAN_POINT('', (0.5, -0.7, 0.15));
#451 = VECTOR('', #452, 0.29999999999999993);
#452 = DIRECTION('', (0.0, 0.0, -1.0));
#453 = (
    BOUNDED_CURVE()
    B_SPLINE_CURVE(2, (#454, #455, #456, #457, #458, #459), .UNSPECIFIED., .U., .U.)
    B_SPLINE_CURVE_WITH_KNOTS((3, 1, 1, 1, 3), (0.0, 0.25, 0.5, 0.75, 1.0), .UNSPECIFIED.)
    CURVE()
    GEOMETRIC_REPRESENTATION_ITEM()
    RATIONAL_B_SPLINE_CURVE((1.0, 0.9587155963302753, 0.9174311926605505, 0.9174311926605505, 0.9587155963302753, 1.0))
    REPRESENTATION_ITEM('')
);
#454 = CARTESIAN_POINT('', (0.5, -0.7, -0.14999999999999997));
#455 = CARTESIAN_POINT('', (0.3911483253588518, -0.7, -0.22177033492822962));
#456 = CARTESIAN_POINT('', (0.13625000000000045, -0.7, -0.3000000000000001));
#457 = CARTESIAN_POINT('', (-0.1362499999999993, -0.7, -0.30000000000000027));
#458 = CARTESIAN_POINT('', (-0.39114832535885075, -0.7, -0.2217703349282302));
#459 = CARTESIAN_POINT('', (-0.499999999999999, -0.7, -0.15000000000000074));
#460 = LINE('', #461, #462);
#461 = CARTESIAN_POINT('', (-0.5, -0.7, -0.15000000000000005));
#462 = VECTOR('', #463, 0.30000000000000004);
#463 = DIRECTION('', (0.0, 0.0, 1.0));
#464 = LINE('', #465, #466);
#465 = CARTESIAN_POINT('', (0.5, -0.7, 0.15));
#466 = VECTOR('', #467, 1.4);
#467 = DIRECTION('', (0.0, 1.0, 0.0));
#468 = (
    BOUNDED_CURVE()
    B_SPLINE_CURVE(2, (#469, #470, #471, #472, #473, #474), .UNSPECIFIED., .U., .U.)
    B_SPLINE_CURVE_WITH_KNOTS((3, 1, 1, 1, 3), (0.0, 0.25, 0.5, 0.75, 1.0), .UNSPECIFIED.)
    CURVE()
    GEOMETRIC_REPRESENTATION_ITEM()
    RATIONAL_B_SPLINE_CURVE((1.0, 0.9587155963302753, 0.9174311926605505, 0.9174311926605505, 0.9587155963302753, 1.0))
    REPRESENTATION_ITEM('')
);
#469 = CARTESIAN_POINT('', (-0.5, 0.7, 0.15000000000000002));
#470 = CARTESIAN_POINT('', (-0.3911483253588518, 0.7, 0.22177033492822967));
#471 = CARTESIAN_POINT('', (-0.13625000000000043, 0.7, 0.3000000000000001));
#472 = CARTESIAN_POINT('', (0.13624999999999932, 0.7, 0.30000000000000027));
#473 = CARTESIAN_POINT('', (0.39114832535885075, 0.7, 0.22177033492823015));
#474 = CARTESIAN_POINT('', (0.499999999999999, 0.7, 0.1500000000000007));
#475 = LINE('', #476, #477);
#476 = CARTESIAN_POINT('', (-0.5, -0.7, 0.15));
#477 = VECTOR('', #478, 1.4);
#478 = DIRECTION('', (0.0, 1.0, 0.0));
#479 = LINE('', #480, #481);
#480 = CARTESIAN_POINT('', (0.5, -0.7, -0.14999999999999994));
#481 = VECTOR('', #482, 1.4);
#482 = DIRECTION('', (0.0, 1.0, 0.0));
#483 = LINE('', #484, #485);
#484 = CARTESIAN_POINT('', (0.5, 0.7, 0.15));
#485 = VECTOR('', #486, 0.29999999999999993);
#486 = DIRECTION('', (0.0, 0.0, -1.0));
#487 = LINE('', #488, #489);
#488 = CARTESIAN_POINT('', (-0.5, -0.7, -0.15000000000000005));
#489 = VECTOR('', #490, 1.4);
#490 = DIRECTION('', (0.0, 1.0, 0.0));
#491 = (
    BOUNDED_CURVE()
    B_SPLINE_CURVE(2, (#492, #493, #494, #495, #496, #497), .UNSPECIFIED., .U., .U.)
    B_SPLINE_CURVE_WITH_KNOTS((3, 1, 1, 1, 3), (0.0, 0.25, 0.5, 0.75, 1.0), .UNSPECIFIED.)
    CURVE()
    GEOMETRIC_REPRESENTATION_ITEM()
    RATIONAL_B_SPLINE_CURVE((1.0, 0.9587155963302753, 0.9174311926605505, 0.9174311926605505, 0.9587155963302753, 1.0))
    REPRESENTATION_ITEM('')
);
#492 = CARTESIAN_POINT('', (0.5, 0.7, -0.14999999999999997));
#493 = CARTESIAN_POINT('', (0.3911483253588518, 0.7, -0.22177033492822962));
#494 = CARTESIAN_POINT('', (0.13625000000000045, 0.7, -0.3000000000000001));
#495 = CARTESIAN_POINT('', (-0.1362499999999993, 0.7, -0.30000000000000027));
#496 = CARTESIAN_POINT('', (-0.39114832535885075, 0.7, -0.2217703349282302));
#497 = CARTESIAN_POINT('', (-0.499999999999999, 0.7, -0.15000000000000074));
#498 = LINE('', #499, #500);
#499 = CARTESIAN_POINT('', (-0.5, 0.7, -0.15000000000000005));
#500 = VECTOR('', #501, 0.30000000000000004);
#501 = DIRECTION('', (0.0, 0.0, 1.0));
#502 = (
    BOUNDED_CURVE()
    B_SPLINE_CURVE(2, (#503, #504, #505, #506, #507, #508), .UNSPECIFIED., .U., .U.)
    B_SPLINE_CURVE_WITH_KNOTS((3, 1, 1, 1, 3), (0.0, 0.25, 0.5, 0.75, 1.0), .UNSPECIFIED.)
    CURVE()
    GEOMETRIC_REPRESENTATION_ITEM()
    RATIONAL_B_SPLINE_CURVE((1.0, 0.875, 0.75, 0.75, 0.875, 1.0))
    REPRESENTATION_ITEM('')
);
#503 = CARTESIAN_POINT('', (-0.12990381056766576, 0.7, -0.07500000000000004));
#504 = CARTESIAN_POINT('', (-0.14846149779161802, 0.7, -0.04285714285714291));
#505 = CARTESIAN_POINT('', (-0.15155444566227674, 0.6999999999999998, 0.03749999999999993));
#506 = CARTESIAN_POINT('', (-0.10825317547305487, 0.6999999999999998, 0.11249999999999992));
#507 = CARTESIAN_POINT('', (-0.037115374447904595, 0.7, 0.14999999999999994));
#508 = CARTESIAN_POINT('', (-8.3266726847E-17, 0.7, 0.14999999999999997));
#509 = (
    BOUNDED_CURVE()
    B_SPLINE_CURVE(2, (#510, #511, #512, #513, #514, #515), .UNSPECIFIED., .U., .U.)
    B_SPLINE_CURVE_WITH_KNOTS((3, 1, 1, 1, 3), (0.0, 0.25, 0.5, 0.75, 1.0), .UNSPECIFIED.)
    CURVE()
    GEOMETRIC_REPRESENTATION_ITEM()
    RATIONAL_B_SPLINE_CURVE((1.0, 0.875, 0.75, 0.75, 0.875, 1.0))
    REPRESENTATION_ITEM('')
);
#510 = CARTESIAN_POINT('', (0.1299038105676658, 0.7, -0.07499999999999997));
#511 = CARTESIAN_POINT('', (0.11134612334371356, 0.7, -0.10714285714285711));
#512 = CARTESIAN_POINT('', (0.04330127018922197, 0.6999999999999998, -0.15));
#513 = CARTESIAN_POINT('', (-0.04330127018922186, 0.6999999999999998, -0.15));
#514 = CARTESIAN_POINT('', (-0.11134612334371348, 0.7, -0.10714285714285718));
#515 = CARTESIAN_POINT('', (-0.12990381056766576, 0.7, -0.07500000000000004));
#516 = (
    BOUNDED_CURVE()
    B_SPLINE_CURVE(2, (#517, #518, #519, #520, #521, #522), .UNSPECIFIED., .U., .U.)
    B_SPLINE_CURVE_WITH_KNOTS((3, 1, 1, 1, 3), (0.0, 0.25, 0.5, 0.75, 1.0), .UNSPECIFIED.)
    CURVE()
    GEOMETRIC_REPRESENTATION_ITEM()
    RATIONAL_B_SPLINE_CURVE((1.0, 0.875, 0.75, 0.75, 0.875, 1.0))
    REPRESENTATION_ITEM('')
);
#517 = CARTESIAN_POINT('', (0.0, 0.7, 0.15));
#518 = CARTESIAN_POINT('', (0.037115374447904505, 0.7, 0.15));
#519 = CARTESIAN_POINT('', (0.10825317547305481, 0.6999999999999998, 0.11249999999999999));
#520 = CARTESIAN_POINT('', (0.15155444566227674, 0.6999999999999998, 0.03750000000000003));
#521 = CARTESIAN_POINT('', (0.14846149779161805, 0.7, -0.042857142857142816));
#522 = CARTESIAN_POINT('', (0.1299038105676658, 0.7, -0.07499999999999997));
#523 = LINE('', #524, #525);
#524 = CARTESIAN_POINT('', (0.1299038105676658, 0.7, -0.07499999999999997));
#525 = VECTOR('', #526, 0.14);
#526 = DIRECTION('', (0.0, 1.0, 0.0));
#527 = (
    BOUNDED_CURVE()
    B_SPLINE_CURVE(2, (#528, #529, #530, #531, #532, #533), .UNSPECIFIED., .U., .U.)
    B_SPLINE_CURVE_WITH_KNOTS((3, 1, 1, 1, 3), (0.0, 0.25, 0.5, 0.75, 1.0), .UNSPECIFIED.)
    CURVE()
    GEOMETRIC_REPRESENTATION_ITEM()
    RATIONAL_B_SPLINE_CURVE((1.0, 0.875, 0.75, 0.75, 0.875, 1.0))
    REPRESENTATION_ITEM('')
);
#528 = CARTESIAN_POINT('', (0.0, 0.84, 0.15));
#529 = CARTESIAN_POINT('', (0.037115374447904505, 0.8399999999999999, 0.15));
#530 = CARTESIAN_POINT('', (0.10825317547305481, 0.8399999999999999, 0.11249999999999999));
#531 = CARTESIAN_POINT('', (0.15155444566227674, 0.8399999999999999, 0.03750000000000003));
#532 = CARTESIAN_POINT('', (0.14846149779161805, 0.8399999999999999, -0.042857142857142816));
#533 = CARTESIAN_POINT('', (0.1299038105676658, 0.84, -0.07499999999999997));
#534 = LINE('', #535, #536);
#535 = CARTESIAN_POINT('', (0.0, 0.7, 0.15));
#536 = VECTOR('', #537, 0.14);
#537 = DIRECTION('', (0.0, 1.0, 0.0));
#538 = LINE('', #539, #540);
#539 = CARTESIAN_POINT('', (-0.12990381056766576, 0.7, -0.07500000000000004));
#540 = VECTOR('', #541, 0.14);
#541 = DIRECTION('', (0.0, 1.0, 0.0));
#542 = (
    BOUNDED_CURVE()
    B_SPLINE_CURVE(2, (#543, #544, #545, #546, #547, #548), .UNSPECIFIED., .U., .U.)
    B_SPLINE_CURVE_WITH_KNOTS((3, 1, 1, 1, 3), (0.0, 0.25, 0.5, 0.75, 1.0), .UNSPECIFIED.)
    CURVE()
    GEOMETRIC_REPRESENTATION_ITEM()
    RATIONAL_B_SPLINE_CURVE((1.0, 0.875, 0.75, 0.75, 0.875, 1.0))
    REPRESENTATION_ITEM('')
);
#543 = CARTESIAN_POINT('', (0.1299038105676658, 0.84, -0.07499999999999997));
#544 = CARTESIAN_POINT('', (0.11134612334371356, 0.8399999999999999, -0.10714285714285711));
#545 = CARTESIAN_POINT('', (0.04330127018922197, 0.8399999999999999, -0.15));
#546 = CARTESIAN_POINT('', (-0.04330127018922186, 0.8399999999999999, -0.15));
#547 = CARTESIAN_POINT('', (-0.11134612334371348, 0.8399999999999999, -0.10714285714285718));
#548 = CARTESIAN_POINT('', (-0.12990381056766576, 0.84, -0.07500000000000004));
#549 = (
    BOUNDED_CURVE()
    B_SPLINE_CURVE(2, (#550, #551, #552, #553, #554, #555), .UNSPECIFIED., .U., .U.)
    B_SPLINE_CURVE_WITH_KNOTS((3, 1, 1, 1, 3), (0.0, 0.25, 0.5, 0.75, 1.0), .UNSPECIFIED.)
    CURVE()
    GEOMETRIC_REPRESENTATION_ITEM()
    RATIONAL_B_SPLINE_CURVE((1.0, 0.875, 0.75, 0.75, 0.875, 1.0))
    REPRESENTATION_ITEM('')
);
#550 = CARTESIAN_POINT('', (-0.12990381056766576, 0.84, -0.07500000000000004));
#551 = CARTESIAN_POINT('', (-0.14846149779161802, 0.8399999999999999, -0.04285714285714291));
#552 = CARTESIAN_POINT('', (-0.15155444566227674, 0.8399999999999999, 0.03749999999999993));
#553 = CARTESIAN_POINT('', (-0.10825317547305487, 0.8399999999999999, 0.11249999999999992));
#554 = CARTESIAN_POINT('', (-0.037115374447904595, 0.8399999999999999, 0.14999999999999994));
#555 = CARTESIAN_POINT('', (-8.3266726847E-17, 0.84, 0.14999999999999997));
#556 = (
    BOUNDED_CURVE()
    B_SPLINE_CURVE(2, (#557, #558, #559, #560, #561, #562), .UNSPECIFIED., .U., .U.)
    B_SPLINE_CURVE_WITH_KNOTS((3, 1, 1, 1, 3), (0.0, 0.25, 0.5, 0.75, 1.0), .UNSPECIFIED.)
    CURVE()
    GEOMETRIC_REPRESENTATION_ITEM()
    RATIONAL_B_SPLINE_CURVE((1.0, 0.875, 0.75, 0.75, 0.875, 1.0))
    REPRESENTATION_ITEM('')
);
#557 = CARTESIAN_POINT('', (-0.10565509926170147, 0.8399999999999999, -0.06100000000000004));
#558 = CARTESIAN_POINT('', (-0.12074868487051597, 0.84, -0.03485714285714291));
#559 = CARTESIAN_POINT('', (-0.1232642824719851, 0.84, 0.030499999999999926));
#560 = CARTESIAN_POINT('', (-0.08804591605141797, 0.84, 0.09149999999999991));
#561 = CARTESIAN_POINT('', (-0.030187171217629084, 0.84, 0.12199999999999996));
#562 = CARTESIAN_POINT('', (-8.3266726847E-17, 0.8399999999999999, 0.12199999999999997));
#563 = (
    BOUNDED_CURVE()
    B_SPLINE_CURVE(2, (#564, #565, #566, #567, #568, #569), .UNSPECIFIED., .U., .U.)
    B_SPLINE_CURVE_WITH_KNOTS((3, 1, 1, 1, 3), (0.0, 0.25, 0.5, 0.75, 1.0), .UNSPECIFIED.)
    CURVE()
    GEOMETRIC_REPRESENTATION_ITEM()
    RATIONAL_B_SPLINE_CURVE((1.0, 0.875, 0.75, 0.75, 0.875, 1.0))
    REPRESENTATION_ITEM('')
);
#564 = CARTESIAN_POINT('', (0.10565509926170152, 0.8399999999999999, -0.06099999999999997));
#565 = CARTESIAN_POINT('', (0.09056151365288702, 0.84, -0.0871428571428571));
#566 = CARTESIAN_POINT('', (0.035218366420567214, 0.84, -0.12199999999999996));
#567 = CARTESIAN_POINT('', (-0.03521836642056711, 0.84, -0.122));
#568 = CARTESIAN_POINT('', (-0.09056151365288696, 0.84, -0.08714285714285716));
#569 = CARTESIAN_POINT('', (-0.10565509926170147, 0.8399999999999999, -0.06100000000000004));
#570 = (
    BOUNDED_CURVE()
    B_SPLINE_CURVE(2, (#571, #572, #573, #574, #575, #576), .UNSPECIFIED., .U., .U.)
    B_SPLINE_CURVE_WITH_KNOTS((3, 1, 1, 1, 3), (0.0, 0.25, 0.5, 0.75, 1.0), .UNSPECIFIED.)
    CURVE()
    GEOMETRIC_REPRESENTATION_ITEM()
    RATIONAL_B_SPLINE_CURVE((1.0, 0.875, 0.75, 0.75, 0.875, 1.0))
    REPRESENTATION_ITEM('')
);
#571 = CARTESIAN_POINT('', (0.0, 0.8399999999999999, 0.122));
#572 = CARTESIAN_POINT('', (0.030187171217628993, 0.84, 0.122));
#573 = CARTESIAN_POINT('', (0.08804591605141791, 0.84, 0.09149999999999998));
#574 = CARTESIAN_POINT('', (0.12326428247198508, 0.84, 0.030500000000000027));
#575 = CARTESIAN_POINT('', (0.12074868487051602, 0.84, -0.03485714285714282));
#576 = CARTESIAN_POINT('', (0.10565509926170152, 0.8399999999999999, -0.06099999999999997));
#577 = (
    BOUNDED_CURVE()
    B_SPLINE_CURVE(2, (#578, #579, #580, #581, #582, #583), .UNSPECIFIED., .U., .U.)
    B_SPLINE_CURVE_WITH_KNOTS((3, 1, 1, 1, 3), (0.0, 0.25, 0.5, 0.75, 1.0), .UNSPECIFIED.)
    CURVE()
    GEOMETRIC_REPRESENTATION_ITEM()
    RATIONAL_B_SPLINE_CURVE((1.0, 0.9616710875331566, 0.9233421750663131, 0.923342175066313, 0.9616710875331564, 1.0))
    REPRESENTATION_ITEM('')
);
#578 = CARTESIAN_POINT('', (-0.472, -0.6719999999999999, 0.136));
#579 = CARTESIAN_POINT('', (-0.3681092263136119, -0.6719999999999999, 0.20128975313749833));
#580 = CARTESIAN_POINT('', (-0.12779661016949156, -0.6719999999999999, 0.27199999999999985));
#581 = CARTESIAN_POINT('', (0.1277966101694914, -0.6719999999999999, 0.27200000000000013));
#582 = CARTESIAN_POINT('', (0.36810922631361187, -0.6719999999999999, 0.20128975313749833));
#583 = CARTESIAN_POINT('', (0.472, -0.6719999999999999, 0.13600000000000012));
#584 = LINE('', #585, #586);
#585 = CARTESIAN_POINT('', (0.472, -0.6719999999999999, 0.136));
#586 = VECTOR('', #587, 0.27199999999999996);
#587 = DIRECTION('', (0.0, 0.0, -1.0));
#588 = (
    BOUNDED_CURVE()
    B_SPLINE_CURVE(2, (#589, #590, #591, #592, #593, #594), .UNSPECIFIED., .U., .U.)
    B_SPLINE_CURVE_WITH_KNOTS((3, 1, 1, 1, 3), (0.0, 0.25, 0.5, 0.75, 1.0), .UNSPECIFIED.)
    CURVE()
    GEOMETRIC_REPRESENTATION_ITEM()
    RATIONAL_B_SPLINE_CURVE((1.0, 0.9616710875331566, 0.9233421750663131, 0.923342175066313, 0.9616710875331564, 1.0))
    REPRESENTATION_ITEM('')
);
#589 = CARTESIAN_POINT('', (0.472, -0.6719999999999999, -0.13599999999999995));
#590 = CARTESIAN_POINT('', (0.3681092263136119, -0.6719999999999999, -0.20128975313749825));
#591 = CARTESIAN_POINT('', (0.1277966101694916, -0.6719999999999999, -0.27199999999999985));
#592 = CARTESIAN_POINT('', (-0.12779661016949137, -0.6719999999999999, -0.27200000000000013));
#593 = CARTESIAN_POINT('', (-0.36810922631361187, -0.6719999999999999, -0.2012897531374984));
#594 = CARTESIAN_POINT('', (-0.472, -0.6719999999999999, -0.13600000000000018));
#595 = LINE('', #596, #597);
#596 = CARTESIAN_POINT('', (-0.472, -0.6719999999999999, -0.13600000000000007));
#597 = VECTOR('', #598, 0.2720000000000001);
#598 = DIRECTION('', (0.0, 0.0, 1.0));
#599 = LINE('', #600, #601);
#600 = CARTESIAN_POINT('', (0.472, -0.6719999999999999, 0.136));
#601 = VECTOR('', #602, 1.3439999999999999);
#602 = DIRECTION('', (0.0, 1.0, 0.0));
#603 = (
    BOUNDED_CURVE()
    B_SPLINE_CURVE(2, (#604, #605, #606, #607, #608, #609), .UNSPECIFIED., .U., .U.)
    B_SPLINE_CURVE_WITH_KNOTS((3, 1, 1, 1, 3), (0.0, 0.25, 0.5, 0.75, 1.0), .UNSPECIFIED.)
    CURVE()
    GEOMETRIC_REPRESENTATION_ITEM()
    RATIONAL_B_SPLINE_CURVE((1.0, 0.9616710875331566, 0.9233421750663131, 0.923342175066313, 0.9616710875331564, 1.0))
    REPRESENTATION_ITEM('')
);
#604 = CARTESIAN_POINT('', (-0.472, 0.6719999999999999, 0.136));
#605 = CARTESIAN_POINT('', (-0.3681092263136119, 0.6719999999999999, 0.20128975313749833));
#606 = CARTESIAN_POINT('', (-0.12779661016949156, 0.6719999999999999, 0.27199999999999985));
#607 = CARTESIAN_POINT('', (0.1277966101694914, 0.6719999999999999, 0.27200000000000013));
#608 = CARTESIAN_POINT('', (0.36810922631361187, 0.6719999999999999, 0.20128975313749833));
#609 = CARTESIAN_POINT('', (0.472, 0.6719999999999999, 0.13600000000000012));
#610 = LINE('', #611, #612);
#611 = CARTESIAN_POINT('', (-0.472, -0.6719999999999999, 0.136));
#612 = VECTOR('', #613, 1.3439999999999999);
#613 = DIRECTION('', (0.0, 1.0, 0.0));
#614 = LINE('', #615, #616);
#615 = CARTESIAN_POINT('', (0.472, -0.6719999999999999, -0.13599999999999995));
#616 = VECTOR('', #617, 1.3439999999999999);
#617 = DIRECTION('', (0.0, 1.0, 0.0));
#618 = LINE('', #619, #620);
#619 = CARTESIAN_POINT('', (0.472, 0.6719999999999999, 0.136));
#620 = VECTOR('', #621, 0.27199999999999996);
#621 = DIRECTION('', (0.0, 0.0, -1.0));
#622 = LINE('', #623, #624);
#623 = CARTESIAN_POINT('', (-0.472, -0.6719999999999999, -0.13600000000000007));
#624 = VECTOR('', #625, 1.3439999999999999);
#625 = DIRECTION('', (0.0, 1.0, 0.0));
#626 = (
    BOUNDED_CURVE()
    B_SPLINE_CURVE(2, (#627, #628, #629, #630, #631, #632), .UNSPECIFIED., .U., .U.)
    B_SPLINE_CURVE_WITH_KNOTS((3, 1, 1, 1, 3), (0.0, 0.25, 0.5, 0.75, 1.0), .UNSPECIFIED.)
    CURVE()
    GEOMETRIC_REPRESENTATION_ITEM()
    RATIONAL_B_SPLINE_CURVE((1.0, 0.9616710875331566, 0.9233421750663131, 0.923342175066313, 0.9616710875331564, 1.0))
    REPRESENTATION_ITEM('')
);
#627 = CARTESIAN_POINT('', (0.472, 0.6719999999999999, -0.13599999999999995));
#628 = CARTESIAN_POINT('', (0.3681092263136119, 0.6719999999999999, -0.20128975313749825));
#629 = CARTESIAN_POINT('', (0.1277966101694916, 0.6719999999999999, -0.27199999999999985));
#630 = CARTESIAN_POINT('', (-0.12779661016949137, 0.6719999999999999, -0.27200000000000013));
#631 = CARTESIAN_POINT('', (-0.36810922631361187, 0.6719999999999999, -0.2012897531374984));
#632 = CARTESIAN_POINT('', (-0.472, 0.6719999999999999, -0.13600000000000018));
#633 = LINE('', #634, #635);
#634 = CARTESIAN_POINT('', (-0.472, 0.6719999999999999, -0.13600000000000007));
#635 = VECTOR('', #636, 0.2720000000000001);
#636 = DIRECTION('', (0.0, 0.0, 1.0));
#637 = (
    BOUNDED_CURVE()
    B_SPLINE_CURVE(2, (#638, #639, #640, #641, #642, #643), .UNSPECIFIED., .U., .U.)
    B_SPLINE_CURVE_WITH_KNOTS((3, 1, 1, 1, 3), (0.0, 0.25, 0.5, 0.75, 1.0), .UNSPECIFIED.)
    CURVE()
    GEOMETRIC_REPRESENTATION_ITEM()
    RATIONAL_B_SPLINE_CURVE((1.0, 0.875, 0.75, 0.75, 0.875, 1.0))
    REPRESENTATION_ITEM('')
);
#638 = CARTESIAN_POINT('', (-0.10565509926170147, 0.6719999999999999, -0.06100000000000004));
#639 = CARTESIAN_POINT('', (-0.12074868487051597, 0.6719999999999999, -0.03485714285714291));
#640 = CARTESIAN_POINT('', (-0.1232642824719851, 0.672, 0.030499999999999926));
#641 = CARTESIAN_POINT('', (-0.08804591605141797, 0.672, 0.09149999999999991));
#642 = CARTESIAN_POINT('', (-0.030187171217629084, 0.6719999999999999, 0.12199999999999996));
#643 = CARTESIAN_POINT('', (-8.3266726847E-17, 0.6719999999999999, 0.12199999999999997));
#644 = (
    BOUNDED_CURVE()
    B_SPLINE_CURVE(2, (#645, #646, #647, #648, #649, #650), .UNSPECIFIED., .U., .U.)
    B_SPLINE_CURVE_WITH_KNOTS((3, 1, 1, 1, 3), (0.0, 0.25, 0.5, 0.75, 1.0), .UNSPECIFIED.)
    CURVE()
    GEOMETRIC_REPRESENTATION_ITEM()
    RATIONAL_B_SPLINE_CURVE((1.0, 0.875, 0.75, 0.75, 0.875, 1.0))
    REPRESENTATION_ITEM('')
);
#645 = CARTESIAN_POINT('', (0.10565509926170152, 0.6719999999999999, -0.06099999999999997));
#646 = CARTESIAN_POINT('', (0.09056151365288702, 0.6719999999999999, -0.0871428571428571));
#647 = CARTESIAN_POINT('', (0.035218366420567214, 0.672, -0.12199999999999996));
#648 = CARTESIAN_POINT('', (-0.03521836642056711, 0.672, -0.122));
#649 = CARTESIAN_POINT('', (-0.09056151365288696, 0.6719999999999999, -0.08714285714285716));
#650 = CARTESIAN_POINT('', (-0.10565509926170147, 0.6719999999999999, -0.06100000000000004));
#651 = (
    BOUNDED_CURVE()
    B_SPLINE_CURVE(2, (#652, #653, #654, #655, #656, #657), .UNSPECIFIED., .U., .U.)
    B_SPLINE_CURVE_WITH_KNOTS((3, 1, 1, 1, 3), (0.0, 0.25, 0.5, 0.75, 1.0), .UNSPECIFIED.)
    CURVE()
    GEOMETRIC_REPRESENTATION_ITEM()
    RATIONAL_B_SPLINE_CURVE((1.0, 0.875, 0.75, 0.75, 0.875, 1.0))
    REPRESENTATION_ITEM('')
);
#652 = CARTESIAN_POINT('', (0.0, 0.6719999999999999, 0.122));
#653 = CARTESIAN_POINT('', (0.030187171217628993, 0.6719999999999999, 0.122));
#654 = CARTESIAN_POINT('', (0.08804591605141791, 0.672, 0.09149999999999998));
#655 = CARTESIAN_POINT('', (0.12326428247198508, 0.672, 0.030500000000000027));
#656 = CARTESIAN_POINT('', (0.12074868487051602, 0.6719999999999999, -0.03485714285714282));
#657 = CARTESIAN_POINT('', (0.10565509926170152, 0.6719999999999999, -0.06099999999999997));
#658 = LINE('', #659, #660);
#659 = CARTESIAN_POINT('', (0.10565509926170152, 0.6719999999999999, -0.06099999999999997));
#660 = VECTOR('', #661, 0.16799999999999993);
#661 = DIRECTION('', (0.0, 1.0, 0.0));
#662 = LINE('', #663, #664);
#663 = CARTESIAN_POINT('', (0.0, 0.6719999999999999, 0.122));
#664 = VECTOR('', #665, 0.16799999999999993);
#665 = DIRECTION('', (0.0, 1.0, 0.0));
#666 = LINE('', #667, #668);
#667 = CARTESIAN_POINT('', (-0.10565509926170147, 0.6719999999999999, -0.06100000000000004));
#668 = VECTOR('', #669, 0.16799999999999993);
#669 = DIRECTION('', (0.0, 1.0, 0.0));
#670 = CARTESIAN_POINT('', (-0.5, -0.7, 0.15));
#671 = CARTESIAN_POINT('', (0.5, -0.7, 0.15));
#672 = CARTESIAN_POINT('', (0.5, -0.7, -0.14999999999999994));
#673 = CARTESIAN_POINT('', (-0.5, -0.7, -0.15000000000000005));
#674 = CARTESIAN_POINT('', (0.5, 0.7, 0.15));
#675 = CARTESIAN_POINT('', (-0.5, 0.7, 0.15));
#676 = CARTESIAN_POINT('', (0.5, 0.7, -0.14999999999999994));
#677 = CARTESIAN_POINT('', (-0.5, 0.7, -0.15000000000000005));
#678 = CARTESIAN_POINT('', (-0.12990381056766576, 0.7, -0.07500000000000004));
#679 = CARTESIAN_POINT('', (0.0, 0.7, 0.15));
#680 = CARTESIAN_POINT('', (0.1299038105676658, 0.7, -0.07499999999999997));
#681 = CARTESIAN_POINT('', (0.1299038105676658, 0.84, -0.07499999999999997));
#682 = CARTESIAN_POINT('', (0.0, 0.84, 0.15));
#683 = CARTESIAN_POINT('', (-0.12990381056766576, 0.84, -0.07500000000000004));
#684 = CARTESIAN_POINT('', (-0.10565509926170147, 0.8399999999999999, -0.06100000000000004));
#685 = CARTESIAN_POINT('', (0.0, 0.8399999999999999, 0.122));
#686 = CARTESIAN_POINT('', (0.10565509926170152, 0.8399999999999999, -0.06099999999999997));
#687 = CARTESIAN_POINT('', (-0.472, -0.6719999999999999, 0.136));
#688 = CARTESIAN_POINT('', (0.472, -0.6719999999999999, 0.136));
#689 = CARTESIAN_POINT('', (0.472, -0.6719999999999999, -0.13599999999999995));
#690 = CARTESIAN_POINT('', (-0.472, -0.6719999999999999, -0.13600000000000007));
#691 = CARTESIAN_POINT('', (0.472, 0.6719999999999999, 0.136));
#692 = CARTESIAN_POINT('', (-0.472, 0.6719999999999999, 0.136));
#693 = CARTESIAN_POINT('', (0.472, 0.6719999999999999, -0.13599999999999995));
#694 = CARTESIAN_POINT('', (-0.472, 0.6719999999999999, -0.13600000000000007));
#695 = CARTESIAN_POINT('', (-0.10565509926170147, 0.6719999999999999, -0.06100000000000004));
#696 = CARTESIAN_POINT('', (0.0, 0.6719999999999999, 0.122));
#697 = CARTESIAN_POINT('', (0.10565509926170152, 0.6719999999999999, -0.06099999999999997));
ENDSEC;
END-ISO-10303-21;
