ISO-10303-21;
HEADER;
FILE_DESCRIPTION(('Shape Data from Truck'), '2;1');
FILE_NAME('', '2025-12-29 06:14:35.962658500', (('')), (('')), 'truck', '', '');
FILE_SCHEMA(('ISO-10303-042'));
ENDSEC;
DATA;
#1 = APPLICATION_PROTOCOL_DEFINITION('international standard', 'automotive_design', 2000, #2);
#2 = APPLICATION_CONTEXT('core data for automotive mechanical design processes');
#3 = SHAPE_DEFINITION_REPRESENTATION(#4, #10);
#4 = PRODUCT_DEFINITION_SHAPE('','', #5);
#5 = PRODUCT_DEFINITION('design','', #6, #9);
#6 = PRODUCT_DEFINITION_FORMATION('','', #7);
#7 = PRODUCT('','','', (#8));
#8 = PRODUCT_CONTEXT('', #2, 'mechanical');
#9 = PRODUCT_DEFINITION_CONTEXT('part definition', #2, 'design');
#10 = ADVANCED_BREP_SHAPE_REPRESENTATION('', (#16), #11);
#11 = (
    GEOMETRIC_REPRESENTATION_CONTEXT(3) 
    GLOBAL_UNCERTAINTY_ASSIGNED_CONTEXT((#15))
    GLOBAL_UNIT_ASSIGNED_CONTEXT((#12, #13, #14))
    REPRESENTATION_CONTEXT('Context #1', '3D Context with UNIT and UNCERTAINTY')
);
#12 = ( LENGTH_UNIT() NAMED_UNIT(*) SI_UNIT(.MILLI.,.METRE.) );
#13 = ( NAMED_UNIT(*) PLANE_ANGLE_UNIT() SI_UNIT($,.RADIAN.) );
#14 = ( NAMED_UNIT(*) SI_UNIT($,.STERADIAN.) SOLID_ANGLE_UNIT() );
#15 = UNCERTAINTY_MEASURE_WITH_UNIT(1.0E-6, #12, 'distance_accuracy_value','confusion accuracy');
#16 = MANIFOLD_SOLID_BREP('', #17);
#17 = CLOSED_SHELL('', (#18, #24, #31, #38, #45));
#18 = FACE_SURFACE('', (#19), #66, .F.);
#19 = FACE_BOUND('', #20, .F.);
#20 = EDGE_LOOP('', (#21, #22, #23));
#21 = ORIENTED_EDGE('', *, *, #51, .T.);
#22 = ORIENTED_EDGE('', *, *, #52, .T.);
#23 = ORIENTED_EDGE('', *, *, #53, .T.);
#24 = FACE_SURFACE('', (#25), #71, .T.);
#25 = FACE_BOUND('', #26, .T.);
#26 = EDGE_LOOP('', (#27, #28, #29, #30));
#27 = ORIENTED_EDGE('', *, *, #51, .T.);
#28 = ORIENTED_EDGE('', *, *, #54, .T.);
#29 = ORIENTED_EDGE('', *, *, #55, .F.);
#30 = ORIENTED_EDGE('', *, *, #56, .F.);
#31 = FACE_SURFACE('', (#32), #84, .T.);
#32 = FACE_BOUND('', #33, .T.);
#33 = EDGE_LOOP('', (#34, #35, #36, #37));
#34 = ORIENTED_EDGE('', *, *, #52, .T.);
#35 = ORIENTED_EDGE('', *, *, #57, .T.);
#36 = ORIENTED_EDGE('', *, *, #58, .F.);
#37 = ORIENTED_EDGE('', *, *, #54, .F.);
#38 = FACE_SURFACE('', (#39), #97, .T.);
#39 = FACE_BOUND('', #40, .T.);
#40 = EDGE_LOOP('', (#41, #42, #43, #44));
#41 = ORIENTED_EDGE('', *, *, #53, .T.);
#42 = ORIENTED_EDGE('', *, *, #56, .T.);
#43 = ORIENTED_EDGE('', *, *, #59, .F.);
#44 = ORIENTED_EDGE('', *, *, #57, .F.);
#45 = FACE_SURFACE('', (#46), #110, .T.);
#46 = FACE_BOUND('', #47, .T.);
#47 = EDGE_LOOP('', (#48, #49, #50));
#48 = ORIENTED_EDGE('', *, *, #55, .T.);
#49 = ORIENTED_EDGE('', *, *, #58, .T.);
#50 = ORIENTED_EDGE('', *, *, #59, .T.);
#51 = EDGE_CURVE('', #60, #61, #115, .T.);
#52 = EDGE_CURVE('', #61, #62, #122, .T.);
#53 = EDGE_CURVE('', #62, #60, #129, .T.);
#54 = EDGE_CURVE('', #61, #63, #136, .T.);
#55 = EDGE_CURVE('', #64, #63, #140, .T.);
#56 = EDGE_CURVE('', #60, #64, #147, .T.);
#57 = EDGE_CURVE('', #62, #65, #151, .T.);
#58 = EDGE_CURVE('', #63, #65, #155, .T.);
#59 = EDGE_CURVE('', #65, #64, #162, .T.);
#60 = VERTEX_POINT('', #169);
#61 = VERTEX_POINT('', #170);
#62 = VERTEX_POINT('', #171);
#63 = VERTEX_POINT('', #172);
#64 = VERTEX_POINT('', #173);
#65 = VERTEX_POINT('', #174);
#66 = PLANE('', #67);
#67 = AXIS2_PLACEMENT_3D('', #68, #69, #70);
#68 = CARTESIAN_POINT('', (1.010362971081845, 2.0, -1.0));
#69 = DIRECTION('', (0.0, -1.7763568394E-15, 1.0));
#70 = DIRECTION('', (-1.0, 0.0, 0.0));
#71 = (
    BOUNDED_SURFACE()
    B_SPLINE_SURFACE(2, 1, ((#72, #73), (#74, #75), (#76, #77), (#78, #79), (#80, #81), (#82, #83)), .UNSPECIFIED., .U., .U., .U.)
    B_SPLINE_SURFACE_WITH_KNOTS((3, 1, 1, 1, 3), (2, 2), (0.0, 0.25, 0.5, 0.75, 1.0), (0.0, 1.0), .UNSPECIFIED.)
    GEOMETRIC_REPRESENTATION_ITEM()
    RATIONAL_B_SPLINE_SURFACE(((1.0, 1.0), (0.875, 0.875), (0.75, 0.75), (0.75, 0.75), (0.875, 0.875), (1.0, 1.0)))
    REPRESENTATION_ITEM('')
    SURFACE()
);
#72 = CARTESIAN_POINT('', (0.0, 0.0, -1.0));
#73 = CARTESIAN_POINT('', (0.0, 0.0, 1.0));
#74 = CARTESIAN_POINT('', (0.24743582965269667, 0.0, -1.0));
#75 = CARTESIAN_POINT('', (0.24743582965269667, 0.0, 1.0));
#76 = CARTESIAN_POINT('', (0.7216878364870322, 0.25, -1.0));
#77 = CARTESIAN_POINT('', (0.7216878364870322, 0.25, 1.0));
#78 = CARTESIAN_POINT('', (1.010362971081845, 0.7499999999999997, -1.0));
#79 = CARTESIAN_POINT('', (1.010362971081845, 0.7499999999999997, 1.0));
#80 = CARTESIAN_POINT('', (0.989743318610787, 1.2857142857142854, -1.0));
#81 = CARTESIAN_POINT('', (0.989743318610787, 1.2857142857142854, 1.0));
#82 = CARTESIAN_POINT('', (0.8660254037844387, 1.4999999999999998, -1.0));
#83 = CARTESIAN_POINT('', (0.8660254037844387, 1.4999999999999998, 1.0));
#84 = (
    BOUNDED_SURFACE()
    B_SPLINE_SURFACE(2, 1, ((#85, #86), (#87, #88), (#89, #90), (#91, #92), (#93, #94), (#95, #96)), .UNSPECIFIED., .U., .U., .U.)
    B_SPLINE_SURFACE_WITH_KNOTS((3, 1, 1, 1, 3), (2, 2), (0.0, 0.25, 0.5, 0.75, 1.0), (0.0, 1.0), .UNSPECIFIED.)
    GEOMETRIC_REPRESENTATION_ITEM()
    RATIONAL_B_SPLINE_SURFACE(((1.0, 1.0), (0.875, 0.875), (0.75, 0.75), (0.75, 0.75), (0.875, 0.875), (1.0, 1.0)))
    REPRESENTATION_ITEM('')
    SURFACE()
);
#85 = CARTESIAN_POINT('', (0.8660254037844387, 1.4999999999999998, -1.0));
#86 = CARTESIAN_POINT('', (0.8660254037844387, 1.4999999999999998, 1.0));
#87 = CARTESIAN_POINT('', (0.7423074889580904, 1.714285714285714, -1.0));
#88 = CARTESIAN_POINT('', (0.7423074889580904, 1.714285714285714, 1.0));
#89 = CARTESIAN_POINT('', (0.2886751345948131, 2.0, -1.0));
#90 = CARTESIAN_POINT('', (0.2886751345948131, 2.0, 1.0));
#91 = CARTESIAN_POINT('', (-0.28867513459481237, 2.0, -1.0));
#92 = CARTESIAN_POINT('', (-0.28867513459481237, 2.0, 1.0));
#93 = CARTESIAN_POINT('', (-0.7423074889580897, 1.7142857142857146, -1.0));
#94 = CARTESIAN_POINT('', (-0.7423074889580897, 1.7142857142857146, 1.0));
#95 = CARTESIAN_POINT('', (-0.8660254037844384, 1.5000000000000004, -1.0));
#96 = CARTESIAN_POINT('', (-0.8660254037844384, 1.5000000000000004, 1.0));
#97 = (
    BOUNDED_SURFACE()
    B_SPLINE_SURFACE(2, 1, ((#98, #99), (#100, #101), (#102, #103), (#104, #105), (#106, #107), (#108, #109)), .UNSPECIFIED., .U., .U., .U.)
    B_SPLINE_SURFACE_WITH_KNOTS((3, 1, 1, 1, 3), (2, 2), (0.0, 0.25, 0.5, 0.75, 1.0), (0.0, 1.0), .UNSPECIFIED.)
    GEOMETRIC_REPRESENTATION_ITEM()
    RATIONAL_B_SPLINE_SURFACE(((1.0, 1.0), (0.875, 0.875), (0.75, 0.75), (0.75, 0.75), (0.875, 0.875), (1.0, 1.0)))
    REPRESENTATION_ITEM('')
    SURFACE()
);
#98 = CARTESIAN_POINT('', (-0.8660254037844383, 1.5000000000000004, -1.0));
#99 = CARTESIAN_POINT('', (-0.8660254037844383, 1.5000000000000004, 1.0));
#100 = CARTESIAN_POINT('', (-0.9897433186107867, 1.2857142857142863, -1.0));
#101 = CARTESIAN_POINT('', (-0.9897433186107867, 1.2857142857142863, 1.0));
#102 = CARTESIAN_POINT('', (-1.0103629710818451, 0.7500000000000006, -1.0));
#103 = CARTESIAN_POINT('', (-1.0103629710818451, 0.7500000000000006, 1.0));
#104 = CARTESIAN_POINT('', (-0.7216878364870327, 0.2500000000000009, -1.0));
#105 = CARTESIAN_POINT('', (-0.7216878364870327, 0.2500000000000009, 1.0));
#106 = CARTESIAN_POINT('', (-0.2474358296526975, 3.8064789416E-16, -1.0));
#107 = CARTESIAN_POINT('', (-0.2474358296526975, 3.8064789416E-16, 1.0));
#108 = CARTESIAN_POINT('', (-7.7715611724E-16, 2.2204460493E-16, -1.0));
#109 = CARTESIAN_POINT('', (-7.7715611724E-16, 2.2204460493E-16, 1.0));
#110 = PLANE('', #111);
#111 = AXIS2_PLACEMENT_3D('', #112, #113, #114);
#112 = CARTESIAN_POINT('', (1.010362971081845, 2.0, 1.0));
#113 = DIRECTION('', (0.0, -1.7763568394E-15, 1.0));
#114 = DIRECTION('', (-1.0, 0.0, 0.0));
#115 = (
    BOUNDED_CURVE()
    B_SPLINE_CURVE(2, (#116, #117, #118, #119, #120, #121), .UNSPECIFIED., .U., .U.)
    B_SPLINE_CURVE_WITH_KNOTS((3, 1, 1, 1, 3), (0.0, 0.25, 0.5, 0.75, 1.0), .UNSPECIFIED.)
    CURVE()
    GEOMETRIC_REPRESENTATION_ITEM()
    RATIONAL_B_SPLINE_CURVE((1.0, 0.875, 0.75, 0.75, 0.875, 1.0))
    REPRESENTATION_ITEM('')
);
#116 = CARTESIAN_POINT('', (0.0, 0.0, -1.0));
#117 = CARTESIAN_POINT('', (0.24743582965269667, 0.0, -1.0));
#118 = CARTESIAN_POINT('', (0.7216878364870322, 0.25, -1.0));
#119 = CARTESIAN_POINT('', (1.010362971081845, 0.7499999999999997, -1.0));
#120 = CARTESIAN_POINT('', (0.989743318610787, 1.2857142857142854, -1.0));
#121 = CARTESIAN_POINT('', (0.8660254037844387, 1.4999999999999998, -1.0));
#122 = (
    BOUNDED_CURVE()
    B_SPLINE_CURVE(2, (#123, #124, #125, #126, #127, #128), .UNSPECIFIED., .U., .U.)
    B_SPLINE_CURVE_WITH_KNOTS((3, 1, 1, 1, 3), (0.0, 0.25, 0.5, 0.75, 1.0), .UNSPECIFIED.)
    CURVE()
    GEOMETRIC_REPRESENTATION_ITEM()
    RATIONAL_B_SPLINE_CURVE((1.0, 0.875, 0.75, 0.75, 0.875, 1.0))
    REPRESENTATION_ITEM('')
);
#123 = CARTESIAN_POINT('', (0.8660254037844387, 1.4999999999999998, -1.0));
#124 = CARTESIAN_POINT('', (0.7423074889580904, 1.714285714285714, -1.0));
#125 = CARTESIAN_POINT('', (0.2886751345948131, 2.0, -1.0));
#126 = CARTESIAN_POINT('', (-0.28867513459481237, 2.0, -1.0));
#127 = CARTESIAN_POINT('', (-0.7423074889580897, 1.7142857142857146, -1.0));
#128 = CARTESIAN_POINT('', (-0.8660254037844384, 1.5000000000000004, -1.0));
#129 = (
    BOUNDED_CURVE()
    B_SPLINE_CURVE(2, (#130, #131, #132, #133, #134, #135), .UNSPECIFIED., .U., .U.)
    B_SPLINE_CURVE_WITH_KNOTS((3, 1, 1, 1, 3), (0.0, 0.25, 0.5, 0.75, 1.0), .UNSPECIFIED.)
    CURVE()
    GEOMETRIC_REPRESENTATION_ITEM()
    RATIONAL_B_SPLINE_CURVE((1.0, 0.875, 0.75, 0.75, 0.875, 1.0))
    REPRESENTATION_ITEM('')
);
#130 = CARTESIAN_POINT('', (-0.8660254037844383, 1.5000000000000004, -1.0));
#131 = CARTESIAN_POINT('', (-0.9897433186107867, 1.2857142857142863, -1.0));
#132 = CARTESIAN_POINT('', (-1.0103629710818451, 0.7500000000000006, -1.0));
#133 = CARTESIAN_POINT('', (-0.7216878364870327, 0.2500000000000009, -1.0));
#134 = CARTESIAN_POINT('', (-0.2474358296526975, 3.8064789416E-16, -1.0));
#135 = CARTESIAN_POINT('', (-7.7715611724E-16, 2.2204460493E-16, -1.0));
#136 = LINE('', #137, #138);
#137 = CARTESIAN_POINT('', (0.8660254037844387, 1.4999999999999998, -1.0));
#138 = VECTOR('', #139, 2.0);
#139 = DIRECTION('', (0.0, 0.0, 1.0));
#140 = (
    BOUNDED_CURVE()
    B_SPLINE_CURVE(2, (#141, #142, #143, #144, #145, #146), .UNSPECIFIED., .U., .U.)
    B_SPLINE_CURVE_WITH_KNOTS((3, 1, 1, 1, 3), (0.0, 0.25, 0.5, 0.75, 1.0), .UNSPECIFIED.)
    CURVE()
    GEOMETRIC_REPRESENTATION_ITEM()
    RATIONAL_B_SPLINE_CURVE((1.0, 0.875, 0.75, 0.75, 0.875, 1.0))
    REPRESENTATION_ITEM('')
);
#141 = CARTESIAN_POINT('', (0.0, 0.0, 1.0));
#142 = CARTESIAN_POINT('', (0.24743582965269667, 0.0, 1.0));
#143 = CARTESIAN_POINT('', (0.7216878364870322, 0.25, 1.0));
#144 = CARTESIAN_POINT('', (1.010362971081845, 0.7499999999999997, 1.0));
#145 = CARTESIAN_POINT('', (0.989743318610787, 1.2857142857142854, 1.0));
#146 = CARTESIAN_POINT('', (0.8660254037844387, 1.4999999999999998, 1.0));
#147 = LINE('', #148, #149);
#148 = CARTESIAN_POINT('', (0.0, 0.0, -1.0));
#149 = VECTOR('', #150, 2.0);
#150 = DIRECTION('', (0.0, 0.0, 1.0));
#151 = LINE('', #152, #153);
#152 = CARTESIAN_POINT('', (-0.8660254037844383, 1.5000000000000004, -1.0));
#153 = VECTOR('', #154, 2.0);
#154 = DIRECTION('', (0.0, 0.0, 1.0));
#155 = (
    BOUNDED_CURVE()
    B_SPLINE_CURVE(2, (#156, #157, #158, #159, #160, #161), .UNSPECIFIED., .U., .U.)
    B_SPLINE_CURVE_WITH_KNOTS((3, 1, 1, 1, 3), (0.0, 0.25, 0.5, 0.75, 1.0), .UNSPECIFIED.)
    CURVE()
    GEOMETRIC_REPRESENTATION_ITEM()
    RATIONAL_B_SPLINE_CURVE((1.0, 0.875, 0.75, 0.75, 0.875, 1.0))
    REPRESENTATION_ITEM('')
);
#156 = CARTESIAN_POINT('', (0.8660254037844387, 1.4999999999999998, 1.0));
#157 = CARTESIAN_POINT('', (0.7423074889580904, 1.714285714285714, 1.0));
#158 = CARTESIAN_POINT('', (0.2886751345948131, 2.0, 1.0));
#159 = CARTESIAN_POINT('', (-0.28867513459481237, 2.0, 1.0));
#160 = CARTESIAN_POINT('', (-0.7423074889580897, 1.7142857142857146, 1.0));
#161 = CARTESIAN_POINT('', (-0.8660254037844384, 1.5000000000000004, 1.0));
#162 = (
    BOUNDED_CURVE()
    B_SPLINE_CURVE(2, (#163, #164, #165, #166, #167, #168), .UNSPECIFIED., .U., .U.)
    B_SPLINE_CURVE_WITH_KNOTS((3, 1, 1, 1, 3), (0.0, 0.25, 0.5, 0.75, 1.0), .UNSPECIFIED.)
    CURVE()
    GEOMETRIC_REPRESENTATION_ITEM()
    RATIONAL_B_SPLINE_CURVE((1.0, 0.875, 0.75, 0.75, 0.875, 1.0))
    REPRESENTATION_ITEM('')
);
#163 = CARTESIAN_POINT('', (-0.8660254037844383, 1.5000000000000004, 1.0));
#164 = CARTESIAN_POINT('', (-0.9897433186107867, 1.2857142857142863, 1.0));
#165 = CARTESIAN_POINT('', (-1.0103629710818451, 0.7500000000000006, 1.0));
#166 = CARTESIAN_POINT('', (-0.7216878364870327, 0.2500000000000009, 1.0));
#167 = CARTESIAN_POINT('', (-0.2474358296526975, 3.8064789416E-16, 1.0));
#168 = CARTESIAN_POINT('', (-7.7715611724E-16, 2.2204460493E-16, 1.0));
#169 = CARTESIAN_POINT('', (0.0, 0.0, -1.0));
#170 = CARTESIAN_POINT('', (0.8660254037844387, 1.4999999999999998, -1.0));
#171 = CARTESIAN_POINT('', (-0.8660254037844383, 1.5000000000000004, -1.0));
#172 = CARTESIAN_POINT('', (0.8660254037844387, 1.4999999999999998, 1.0));
#173 = CARTESIAN_POINT('', (0.0, 0.0, 1.0));
#174 = CARTESIAN_POINT('', (-0.8660254037844383, 1.5000000000000004, 1.0));
ENDSEC;
END-ISO-10303-21;
