ISO-10303-21;
HEADER;
FILE_DESCRIPTION(('Shape Data from Truck'), '2;1');
FILE_NAME('', '2025-12-29 06:14:35.946231', (('')), (('')), 'truck', '', '');
FILE_SCHEMA(('ISO-10303-042'));
ENDSEC;
DATA;
#1 = APPLICATION_PROTOCOL_DEFINITION('international standard', 'automotive_design', 2000, #2);
#2 = APPLICATION_CONTEXT('core data for automotive mechanical design processes');
#3 = SHAPE_DEFINITION_REPRESENTATION(#4, #10);
#4 = PRODUCT_DEFINITION_SHAPE('','', #5);
#5 = PRODUCT_DEFINITION('design','', #6, #9);
#6 = PRODUCT_DEFINITION_FORMATION('','', #7);
#7 = PRODUCT('','','', (#8));
#8 = PRODUCT_CONTEXT('', #2, 'mechanical');
#9 = PRODUCT_DEFINITION_CONTEXT('part definition', #2, 'design');
#10 = ADVANCED_BREP_SHAPE_REPRESENTATION('', (#16), #11);
#11 = (
    GEOMETRIC_REPRESENTATION_CONTEXT(3) 
    GLOBAL_UNCERTAINTY_ASSIGNED_CONTEXT((#15))
    GLOBAL_UNIT_ASSIGNED_CONTEXT((#12, #13, #14))
    REPRESENTATION_CONTEXT('Context #1', '3D Context with UNIT and UNCERTAINTY')
);
#12 = ( LENGTH_UNIT() NAMED_UNIT(*) SI_UNIT(.MILLI.,.METRE.) );
#13 = ( NAMED_UNIT(*) PLANE_ANGLE_UNIT() SI_UNIT($,.RADIAN.) );
#14 = ( NAMED_UNIT(*) SI_UNIT($,.STERADIAN.) SOLID_ANGLE_UNIT() );
#15 = UNCERTAINTY_MEASURE_WITH_UNIT(1.0E-6, #12, 'distance_accuracy_value','confusion accuracy');
#16 = MANIFOLD_SOLID_BREP('', #17);
#17 = CLOSED_SHELL('', (#18, #25, #32, #39, #46, #53, #60, #67, #74));
#18 = FACE_SURFACE('', (#19), #108, .T.);
#19 = FACE_BOUND('', #20, .T.);
#20 = EDGE_LOOP('', (#21, #22, #23, #24));
#21 = ORIENTED_EDGE('', *, *, #81, .T.);
#22 = ORIENTED_EDGE('', *, *, #82, .T.);
#23 = ORIENTED_EDGE('', *, *, #83, .F.);
#24 = ORIENTED_EDGE('', *, *, #84, .F.);
#25 = FACE_SURFACE('', (#26), #119, .T.);
#26 = FACE_BOUND('', #27, .T.);
#27 = EDGE_LOOP('', (#28, #29, #30, #31));
#28 = ORIENTED_EDGE('', *, *, #85, .T.);
#29 = ORIENTED_EDGE('', *, *, #86, .T.);
#30 = ORIENTED_EDGE('', *, *, #87, .F.);
#31 = ORIENTED_EDGE('', *, *, #82, .F.);
#32 = FACE_SURFACE('', (#33), #130, .T.);
#33 = FACE_BOUND('', #34, .T.);
#34 = EDGE_LOOP('', (#35, #36, #37, #38));
#35 = ORIENTED_EDGE('', *, *, #88, .T.);
#36 = ORIENTED_EDGE('', *, *, #84, .T.);
#37 = ORIENTED_EDGE('', *, *, #89, .F.);
#38 = ORIENTED_EDGE('', *, *, #86, .F.);
#39 = FACE_SURFACE('', (#40), #141, .T.);
#40 = FACE_BOUND('', #41, .T.);
#41 = EDGE_LOOP('', (#42, #43, #44, #45));
#42 = ORIENTED_EDGE('', *, *, #83, .T.);
#43 = ORIENTED_EDGE('', *, *, #90, .T.);
#44 = ORIENTED_EDGE('', *, *, #91, .F.);
#45 = ORIENTED_EDGE('', *, *, #92, .F.);
#46 = FACE_SURFACE('', (#47), #152, .T.);
#47 = FACE_BOUND('', #48, .T.);
#48 = EDGE_LOOP('', (#49, #50, #51, #52));
#49 = ORIENTED_EDGE('', *, *, #87, .T.);
#50 = ORIENTED_EDGE('', *, *, #93, .T.);
#51 = ORIENTED_EDGE('', *, *, #94, .F.);
#52 = ORIENTED_EDGE('', *, *, #90, .F.);
#53 = FACE_SURFACE('', (#54), #163, .T.);
#54 = FACE_BOUND('', #55, .T.);
#55 = EDGE_LOOP('', (#56, #57, #58, #59));
#56 = ORIENTED_EDGE('', *, *, #89, .T.);
#57 = ORIENTED_EDGE('', *, *, #92, .T.);
#58 = ORIENTED_EDGE('', *, *, #95, .F.);
#59 = ORIENTED_EDGE('', *, *, #93, .F.);
#60 = FACE_SURFACE('', (#61), #174, .T.);
#61 = FACE_BOUND('', #62, .T.);
#62 = EDGE_LOOP('', (#63, #64, #65, #66));
#63 = ORIENTED_EDGE('', *, *, #91, .T.);
#64 = ORIENTED_EDGE('', *, *, #96, .T.);
#65 = ORIENTED_EDGE('', *, *, #81, .F.);
#66 = ORIENTED_EDGE('', *, *, #97, .F.);
#67 = FACE_SURFACE('', (#68), #185, .T.);
#68 = FACE_BOUND('', #69, .T.);
#69 = EDGE_LOOP('', (#70, #71, #72, #73));
#70 = ORIENTED_EDGE('', *, *, #94, .T.);
#71 = ORIENTED_EDGE('', *, *, #98, .T.);
#72 = ORIENTED_EDGE('', *, *, #85, .F.);
#73 = ORIENTED_EDGE('', *, *, #96, .F.);
#74 = FACE_SURFACE('', (#75), #196, .T.);
#75 = FACE_BOUND('', #76, .T.);
#76 = EDGE_LOOP('', (#77, #78, #79, #80));
#77 = ORIENTED_EDGE('', *, *, #95, .T.);
#78 = ORIENTED_EDGE('', *, *, #97, .T.);
#79 = ORIENTED_EDGE('', *, *, #88, .F.);
#80 = ORIENTED_EDGE('', *, *, #98, .F.);
#81 = EDGE_CURVE('', #99, #100, #207, .T.);
#82 = EDGE_CURVE('', #100, #101, #214, .T.);
#83 = EDGE_CURVE('', #102, #101, #221, .T.);
#84 = EDGE_CURVE('', #99, #102, #228, .T.);
#85 = EDGE_CURVE('', #100, #103, #235, .T.);
#86 = EDGE_CURVE('', #103, #104, #242, .T.);
#87 = EDGE_CURVE('', #101, #104, #249, .T.);
#88 = EDGE_CURVE('', #103, #99, #256, .T.);
#89 = EDGE_CURVE('', #104, #102, #263, .T.);
#90 = EDGE_CURVE('', #101, #105, #270, .T.);
#91 = EDGE_CURVE('', #106, #105, #277, .T.);
#92 = EDGE_CURVE('', #102, #106, #284, .T.);
#93 = EDGE_CURVE('', #104, #107, #291, .T.);
#94 = EDGE_CURVE('', #105, #107, #298, .T.);
#95 = EDGE_CURVE('', #107, #106, #305, .T.);
#96 = EDGE_CURVE('', #105, #100, #312, .T.);
#97 = EDGE_CURVE('', #106, #99, #319, .T.);
#98 = EDGE_CURVE('', #107, #103, #326, .T.);
#99 = VERTEX_POINT('', #333);
#100 = VERTEX_POINT('', #334);
#101 = VERTEX_POINT('', #335);
#102 = VERTEX_POINT('', #336);
#103 = VERTEX_POINT('', #337);
#104 = VERTEX_POINT('', #338);
#105 = VERTEX_POINT('', #339);
#106 = VERTEX_POINT('', #340);
#107 = VERTEX_POINT('', #341);
#108 = SURFACE_OF_REVOLUTION('', #109, #116);
#109 = (
    BOUNDED_CURVE()
    B_SPLINE_CURVE(2, (#110, #111, #112, #113, #114, #115), .UNSPECIFIED., .U., .U.)
    B_SPLINE_CURVE_WITH_KNOTS((3, 1, 1, 1, 3), (0.0, 0.25, 0.5, 0.75, 1.0), .UNSPECIFIED.)
    CURVE()
    GEOMETRIC_REPRESENTATION_ITEM()
    RATIONAL_B_SPLINE_CURVE((1.0, 0.875, 0.75, 0.75, 0.875, 1.0))
    REPRESENTATION_ITEM('')
);
#110 = CARTESIAN_POINT('', (0.0, 0.0, 1.0));
#111 = CARTESIAN_POINT('', (0.0, 0.0, 0.8762820851736517));
#112 = CARTESIAN_POINT('', (0.0, 0.125, 0.639156081756484));
#113 = CARTESIAN_POINT('', (0.0, 0.37499999999999983, 0.49481851445907754));
#114 = CARTESIAN_POINT('', (0.0, 0.6428571428571427, 0.5051283406946065));
#115 = CARTESIAN_POINT('', (0.0, 0.7499999999999999, 0.5669872981077806));
#116 = AXIS1_PLACEMENT('', #117, #118);
#117 = CARTESIAN_POINT('', (0.0, 0.0, 0.0));
#118 = DIRECTION('', (0.0, 1.0, 0.0));
#119 = SURFACE_OF_REVOLUTION('', #120, #127);
#120 = (
    BOUNDED_CURVE()
    B_SPLINE_CURVE(2, (#121, #122, #123, #124, #125, #126), .UNSPECIFIED., .U., .U.)
    B_SPLINE_CURVE_WITH_KNOTS((3, 1, 1, 1, 3), (0.0, 0.25, 0.5, 0.75, 1.0), .UNSPECIFIED.)
    CURVE()
    GEOMETRIC_REPRESENTATION_ITEM()
    RATIONAL_B_SPLINE_CURVE((1.0, 0.875, 0.75, 0.75, 0.875, 1.0))
    REPRESENTATION_ITEM('')
);
#121 = CARTESIAN_POINT('', (0.0, 0.7499999999999999, 0.5669872981077806));
#122 = CARTESIAN_POINT('', (0.0, 0.857142857142857, 0.6288462555209549));
#123 = CARTESIAN_POINT('', (0.0, 1.0, 0.8556624327025935));
#124 = CARTESIAN_POINT('', (0.0, 1.0, 1.1443375672974063));
#125 = CARTESIAN_POINT('', (0.0, 0.8571428571428573, 1.371153744479045));
#126 = CARTESIAN_POINT('', (0.0, 0.7500000000000002, 1.4330127018922192));
#127 = AXIS1_PLACEMENT('', #128, #129);
#128 = CARTESIAN_POINT('', (0.0, 0.0, 0.0));
#129 = DIRECTION('', (0.0, 1.0, 0.0));
#130 = SURFACE_OF_REVOLUTION('', #131, #138);
#131 = (
    BOUNDED_CURVE()
    B_SPLINE_CURVE(2, (#132, #133, #134, #135, #136, #137), .UNSPECIFIED., .U., .U.)
    B_SPLINE_CURVE_WITH_KNOTS((3, 1, 1, 1, 3), (0.0, 0.25, 0.5, 0.75, 1.0), .UNSPECIFIED.)
    CURVE()
    GEOMETRIC_REPRESENTATION_ITEM()
    RATIONAL_B_SPLINE_CURVE((1.0, 0.875, 0.75, 0.75, 0.875, 1.0))
    REPRESENTATION_ITEM('')
);
#132 = CARTESIAN_POINT('', (0.0, 0.7500000000000002, 1.4330127018922192));
#133 = CARTESIAN_POINT('', (0.0, 0.6428571428571431, 1.4948716593053935));
#134 = CARTESIAN_POINT('', (0.0, 0.3750000000000003, 1.5051814855409227));
#135 = CARTESIAN_POINT('', (0.0, 0.1250000000000003, 1.3608439182435166));
#136 = CARTESIAN_POINT('', (0.0, 1.9032394708E-16, 1.1237179148263488));
#137 = CARTESIAN_POINT('', (0.0, 5.5511151231E-17, 1.0000000000000004));
#138 = AXIS1_PLACEMENT('', #139, #140);
#139 = CARTESIAN_POINT('', (0.0, 0.0, 0.0));
#140 = DIRECTION('', (0.0, 1.0, 0.0));
#141 = SURFACE_OF_REVOLUTION('', #142, #149);
#142 = (
    BOUNDED_CURVE()
    B_SPLINE_CURVE(2, (#143, #144, #145, #146, #147, #148), .UNSPECIFIED., .U., .U.)
    B_SPLINE_CURVE_WITH_KNOTS((3, 1, 1, 1, 3), (0.0, 0.25, 0.5, 0.75, 1.0), .UNSPECIFIED.)
    CURVE()
    GEOMETRIC_REPRESENTATION_ITEM()
    RATIONAL_B_SPLINE_CURVE((1.0, 0.875, 0.75, 0.75, 0.875, 1.0))
    REPRESENTATION_ITEM('')
);
#143 = CARTESIAN_POINT('', (0.8660254037844387, 0.0, -0.4999999999999998));
#144 = CARTESIAN_POINT('', (0.7588825466415816, 0.0, -0.4381410425868256));
#145 = CARTESIAN_POINT('', (0.5535254037844387, 0.125, -0.3195780408782418));
#146 = CARTESIAN_POINT('', (0.42852540378443876, 0.37499999999999983, -0.24740925722953866));
#147 = CARTESIAN_POINT('', (0.4374539752130101, 0.6428571428571427, -0.2525641703473031));
#148 = CARTESIAN_POINT('', (0.4910254037844386, 0.7499999999999999, -0.2834936490538902));
#149 = AXIS1_PLACEMENT('', #150, #151);
#150 = CARTESIAN_POINT('', (0.0, 0.0, 0.0));
#151 = DIRECTION('', (0.0, 1.0, 0.0));
#152 = SURFACE_OF_REVOLUTION('', #153, #160);
#153 = (
    BOUNDED_CURVE()
    B_SPLINE_CURVE(2, (#154, #155, #156, #157, #158, #159), .UNSPECIFIED., .U., .U.)
    B_SPLINE_CURVE_WITH_KNOTS((3, 1, 1, 1, 3), (0.0, 0.25, 0.5, 0.75, 1.0), .UNSPECIFIED.)
    CURVE()
    GEOMETRIC_REPRESENTATION_ITEM()
    RATIONAL_B_SPLINE_CURVE((1.0, 0.875, 0.75, 0.75, 0.875, 1.0))
    REPRESENTATION_ITEM('')
);
#154 = CARTESIAN_POINT('', (0.4910254037844386, 0.7499999999999999, -0.2834936490538902));
#155 = CARTESIAN_POINT('', (0.5445968323558673, 0.857142857142857, -0.3144231277604773));
#156 = CARTESIAN_POINT('', (0.7410254037844387, 1.0, -0.4278312163512965));
#157 = CARTESIAN_POINT('', (0.9910254037844385, 1.0, -0.5721687836487029));
#158 = CARTESIAN_POINT('', (1.18745397521301, 0.8571428571428573, -0.6855768722395222));
#159 = CARTESIAN_POINT('', (1.2410254037844386, 0.7500000000000002, -0.7165063509461093));
#160 = AXIS1_PLACEMENT('', #161, #162);
#161 = CARTESIAN_POINT('', (0.0, 0.0, 0.0));
#162 = DIRECTION('', (0.0, 1.0, 0.0));
#163 = SURFACE_OF_REVOLUTION('', #164, #171);
#164 = (
    BOUNDED_CURVE()
    B_SPLINE_CURVE(2, (#165, #166, #167, #168, #169, #170), .UNSPECIFIED., .U., .U.)
    B_SPLINE_CURVE_WITH_KNOTS((3, 1, 1, 1, 3), (0.0, 0.25, 0.5, 0.75, 1.0), .UNSPECIFIED.)
    CURVE()
    GEOMETRIC_REPRESENTATION_ITEM()
    RATIONAL_B_SPLINE_CURVE((1.0, 0.875, 0.75, 0.75, 0.875, 1.0))
    REPRESENTATION_ITEM('')
);
#165 = CARTESIAN_POINT('', (1.2410254037844386, 0.7500000000000002, -0.7165063509461093));
#166 = CARTESIAN_POINT('', (1.294596832355867, 0.6428571428571431, -0.7474358296526963));
#167 = CARTESIAN_POINT('', (1.303525403784439, 0.3750000000000003, -0.7525907427704611));
#168 = CARTESIAN_POINT('', (1.178525403784439, 0.1250000000000003, -0.680421959121758));
#169 = CARTESIAN_POINT('', (0.9731682609272961, 1.9032394708E-16, -0.5618589574131742));
#170 = CARTESIAN_POINT('', (0.866025403784439, 5.5511151231E-17, -0.5));
#171 = AXIS1_PLACEMENT('', #172, #173);
#172 = CARTESIAN_POINT('', (0.0, 0.0, 0.0));
#173 = DIRECTION('', (0.0, 1.0, 0.0));
#174 = SURFACE_OF_REVOLUTION('', #175, #182);
#175 = (
    BOUNDED_CURVE()
    B_SPLINE_CURVE(2, (#176, #177, #178, #179, #180, #181), .UNSPECIFIED., .U., .U.)
    B_SPLINE_CURVE_WITH_KNOTS((3, 1, 1, 1, 3), (0.0, 0.25, 0.5, 0.75, 1.0), .UNSPECIFIED.)
    CURVE()
    GEOMETRIC_REPRESENTATION_ITEM()
    RATIONAL_B_SPLINE_CURVE((1.0, 0.875, 0.75, 0.75, 0.875, 1.0))
    REPRESENTATION_ITEM('')
);
#176 = CARTESIAN_POINT('', (-0.8660254037844384, 0.0, -0.5000000000000003));
#177 = CARTESIAN_POINT('', (-0.7588825466415813, 0.0, -0.4381410425868261));
#178 = CARTESIAN_POINT('', (-0.5535254037844385, 0.125, -0.3195780408782422));
#179 = CARTESIAN_POINT('', (-0.42852540378443854, 0.37499999999999983, -0.24740925722953896));
#180 = CARTESIAN_POINT('', (-0.43745397521300994, 0.6428571428571427, -0.25256417034730344));
#181 = CARTESIAN_POINT('', (-0.4910254037844384, 0.7499999999999999, -0.28349364905389046));
#182 = AXIS1_PLACEMENT('', #183, #184);
#183 = CARTESIAN_POINT('', (0.0, 0.0, 0.0));
#184 = DIRECTION('', (0.0, 1.0, 0.0));
#185 = SURFACE_OF_REVOLUTION('', #186, #193);
#186 = (
    BOUNDED_CURVE()
    B_SPLINE_CURVE(2, (#187, #188, #189, #190, #191, #192), .UNSPECIFIED., .U., .U.)
    B_SPLINE_CURVE_WITH_KNOTS((3, 1, 1, 1, 3), (0.0, 0.25, 0.5, 0.75, 1.0), .UNSPECIFIED.)
    CURVE()
    GEOMETRIC_REPRESENTATION_ITEM()
    RATIONAL_B_SPLINE_CURVE((1.0, 0.875, 0.75, 0.75, 0.875, 1.0))
    REPRESENTATION_ITEM('')
);
#187 = CARTESIAN_POINT('', (-0.4910254037844384, 0.7499999999999999, -0.28349364905389046));
#188 = CARTESIAN_POINT('', (-0.544596832355867, 0.857142857142857, -0.3144231277604776));
#189 = CARTESIAN_POINT('', (-0.7410254037844384, 1.0, -0.4278312163512971));
#190 = CARTESIAN_POINT('', (-0.991025403784438, 1.0, -0.5721687836487035));
#191 = CARTESIAN_POINT('', (-1.1874539752130093, 0.8571428571428573, -0.6855768722395228));
#192 = CARTESIAN_POINT('', (-1.241025403784438, 0.7500000000000002, -0.71650635094611));
#193 = AXIS1_PLACEMENT('', #194, #195);
#194 = CARTESIAN_POINT('', (0.0, 0.0, 0.0));
#195 = DIRECTION('', (0.0, 1.0, 0.0));
#196 = SURFACE_OF_REVOLUTION('', #197, #204);
#197 = (
    BOUNDED_CURVE()
    B_SPLINE_CURVE(2, (#198, #199, #200, #201, #202, #203), .UNSPECIFIED., .U., .U.)
    B_SPLINE_CURVE_WITH_KNOTS((3, 1, 1, 1, 3), (0.0, 0.25, 0.5, 0.75, 1.0), .UNSPECIFIED.)
    CURVE()
    GEOMETRIC_REPRESENTATION_ITEM()
    RATIONAL_B_SPLINE_CURVE((1.0, 0.875, 0.75, 0.75, 0.875, 1.0))
    REPRESENTATION_ITEM('')
);
#198 = CARTESIAN_POINT('', (-1.241025403784438, 0.7500000000000002, -0.71650635094611));
#199 = CARTESIAN_POINT('', (-1.2945968323558665, 0.6428571428571431, -0.7474358296526972));
#200 = CARTESIAN_POINT('', (-1.3035254037844384, 0.3750000000000003, -0.7525907427704618));
#201 = CARTESIAN_POINT('', (-1.1785254037844386, 0.1250000000000003, -0.6804219591217587));
#202 = CARTESIAN_POINT('', (-0.9731682609272958, 1.9032394708E-16, -0.5618589574131747));
#203 = CARTESIAN_POINT('', (-0.8660254037844387, 5.5511151231E-17, -0.5000000000000006));
#204 = AXIS1_PLACEMENT('', #205, #206);
#205 = CARTESIAN_POINT('', (0.0, 0.0, 0.0));
#206 = DIRECTION('', (0.0, 1.0, 0.0));
#207 = (
    BOUNDED_CURVE()
    B_SPLINE_CURVE(2, (#208, #209, #210, #211, #212, #213), .UNSPECIFIED., .U., .U.)
    B_SPLINE_CURVE_WITH_KNOTS((3, 1, 1, 1, 3), (0.0, 0.25, 0.5, 0.75, 1.0), .UNSPECIFIED.)
    CURVE()
    GEOMETRIC_REPRESENTATION_ITEM()
    RATIONAL_B_SPLINE_CURVE((1.0, 0.875, 0.75, 0.75, 0.875, 1.0))
    REPRESENTATION_ITEM('')
);
#208 = CARTESIAN_POINT('', (0.0, 0.0, 1.0));
#209 = CARTESIAN_POINT('', (0.0, 0.0, 0.8762820851736517));
#210 = CARTESIAN_POINT('', (0.0, 0.125, 0.639156081756484));
#211 = CARTESIAN_POINT('', (0.0, 0.37499999999999983, 0.49481851445907754));
#212 = CARTESIAN_POINT('', (0.0, 0.6428571428571427, 0.5051283406946065));
#213 = CARTESIAN_POINT('', (0.0, 0.7499999999999999, 0.5669872981077806));
#214 = (
    BOUNDED_CURVE()
    B_SPLINE_CURVE(2, (#215, #216, #217, #218, #219, #220), .UNSPECIFIED., .U., .U.)
    B_SPLINE_CURVE_WITH_KNOTS((3, 1, 1, 1, 3), (0.0, 0.25, 0.5, 0.75, 1.0), .UNSPECIFIED.)
    CURVE()
    GEOMETRIC_REPRESENTATION_ITEM()
    RATIONAL_B_SPLINE_CURVE((1.0, 0.875, 0.75, 0.75, 0.875, 1.0))
    REPRESENTATION_ITEM('')
);
#215 = CARTESIAN_POINT('', (0.0, 0.7499999999999999, 0.5669872981077806));
#216 = CARTESIAN_POINT('', (0.14029297250983955, 0.7499999999999999, 0.5669872981077806));
#217 = CARTESIAN_POINT('', (0.4091878364870321, 0.7499999999999999, 0.42524047358083544));
#218 = CARTESIAN_POINT('', (0.5728629710818449, 0.7499999999999999, 0.1417468245269453));
#219 = CARTESIAN_POINT('', (0.5611718900393583, 0.7499999999999999, -0.16199637088793714));
#220 = CARTESIAN_POINT('', (0.4910254037844386, 0.7499999999999999, -0.2834936490538902));
#221 = (
    BOUNDED_CURVE()
    B_SPLINE_CURVE(2, (#222, #223, #224, #225, #226, #227), .UNSPECIFIED., .U., .U.)
    B_SPLINE_CURVE_WITH_KNOTS((3, 1, 1, 1, 3), (0.0, 0.25, 0.5, 0.75, 1.0), .UNSPECIFIED.)
    CURVE()
    GEOMETRIC_REPRESENTATION_ITEM()
    RATIONAL_B_SPLINE_CURVE((1.0, 0.875, 0.75, 0.75, 0.875, 1.0))
    REPRESENTATION_ITEM('')
);
#222 = CARTESIAN_POINT('', (0.8660254037844387, 0.0, -0.4999999999999998));
#223 = CARTESIAN_POINT('', (0.7588825466415816, 0.0, -0.4381410425868256));
#224 = CARTESIAN_POINT('', (0.5535254037844387, 0.125, -0.3195780408782418));
#225 = CARTESIAN_POINT('', (0.42852540378443876, 0.37499999999999983, -0.24740925722953866));
#226 = CARTESIAN_POINT('', (0.4374539752130101, 0.6428571428571427, -0.2525641703473031));
#227 = CARTESIAN_POINT('', (0.4910254037844386, 0.7499999999999999, -0.2834936490538902));
#228 = (
    BOUNDED_CURVE()
    B_SPLINE_CURVE(2, (#229, #230, #231, #232, #233, #234), .UNSPECIFIED., .U., .U.)
    B_SPLINE_CURVE_WITH_KNOTS((3, 1, 1, 1, 3), (0.0, 0.25, 0.5, 0.75, 1.0), .UNSPECIFIED.)
    CURVE()
    GEOMETRIC_REPRESENTATION_ITEM()
    RATIONAL_B_SPLINE_CURVE((1.0, 0.875, 0.75, 0.75, 0.875, 1.0))
    REPRESENTATION_ITEM('')
);
#229 = CARTESIAN_POINT('', (0.0, 0.0, 1.0));
#230 = CARTESIAN_POINT('', (0.24743582965269667, 0.0, 1.0));
#231 = CARTESIAN_POINT('', (0.7216878364870322, 0.0, 0.75));
#232 = CARTESIAN_POINT('', (1.010362971081845, 0.0, 0.2500000000000002));
#233 = CARTESIAN_POINT('', (0.989743318610787, 0.0, -0.2857142857142855));
#234 = CARTESIAN_POINT('', (0.8660254037844387, 0.0, -0.4999999999999998));
#235 = (
    BOUNDED_CURVE()
    B_SPLINE_CURVE(2, (#236, #237, #238, #239, #240, #241), .UNSPECIFIED., .U., .U.)
    B_SPLINE_CURVE_WITH_KNOTS((3, 1, 1, 1, 3), (0.0, 0.25, 0.5, 0.75, 1.0), .UNSPECIFIED.)
    CURVE()
    GEOMETRIC_REPRESENTATION_ITEM()
    RATIONAL_B_SPLINE_CURVE((1.0, 0.875, 0.75, 0.75, 0.875, 1.0))
    REPRESENTATION_ITEM('')
);
#236 = CARTESIAN_POINT('', (0.0, 0.7499999999999999, 0.5669872981077806));
#237 = CARTESIAN_POINT('', (0.0, 0.857142857142857, 0.6288462555209549));
#238 = CARTESIAN_POINT('', (0.0, 1.0, 0.8556624327025935));
#239 = CARTESIAN_POINT('', (0.0, 1.0, 1.1443375672974063));
#240 = CARTESIAN_POINT('', (0.0, 0.8571428571428573, 1.371153744479045));
#241 = CARTESIAN_POINT('', (0.0, 0.7500000000000002, 1.4330127018922192));
#242 = (
    BOUNDED_CURVE()
    B_SPLINE_CURVE(2, (#243, #244, #245, #246, #247, #248), .UNSPECIFIED., .U., .U.)
    B_SPLINE_CURVE_WITH_KNOTS((3, 1, 1, 1, 3), (0.0, 0.25, 0.5, 0.75, 1.0), .UNSPECIFIED.)
    CURVE()
    GEOMETRIC_REPRESENTATION_ITEM()
    RATIONAL_B_SPLINE_CURVE((1.0, 0.875, 0.75, 0.75, 0.875, 1.0))
    REPRESENTATION_ITEM('')
);
#243 = CARTESIAN_POINT('', (0.0, 0.7500000000000002, 1.4330127018922192));
#244 = CARTESIAN_POINT('', (0.35457868679555377, 0.7500000000000002, 1.4330127018922192));
#245 = CARTESIAN_POINT('', (1.034187836487032, 0.7500000000000003, 1.0747595264191643));
#246 = CARTESIAN_POINT('', (1.4478629710818447, 0.7500000000000003, 0.35825317547305513));
#247 = CARTESIAN_POINT('', (1.4183147471822153, 0.7500000000000002, -0.4094322005406337));
#248 = CARTESIAN_POINT('', (1.2410254037844386, 0.7500000000000002, -0.7165063509461093));
#249 = (
    BOUNDED_CURVE()
    B_SPLINE_CURVE(2, (#250, #251, #252, #253, #254, #255), .UNSPECIFIED., .U., .U.)
    B_SPLINE_CURVE_WITH_KNOTS((3, 1, 1, 1, 3), (0.0, 0.25, 0.5, 0.75, 1.0), .UNSPECIFIED.)
    CURVE()
    GEOMETRIC_REPRESENTATION_ITEM()
    RATIONAL_B_SPLINE_CURVE((1.0, 0.875, 0.75, 0.75, 0.875, 1.0))
    REPRESENTATION_ITEM('')
);
#250 = CARTESIAN_POINT('', (0.4910254037844386, 0.7499999999999999, -0.2834936490538902));
#251 = CARTESIAN_POINT('', (0.5445968323558673, 0.857142857142857, -0.3144231277604773));
#252 = CARTESIAN_POINT('', (0.7410254037844387, 1.0, -0.4278312163512965));
#253 = CARTESIAN_POINT('', (0.9910254037844385, 1.0, -0.5721687836487029));
#254 = CARTESIAN_POINT('', (1.18745397521301, 0.8571428571428573, -0.6855768722395222));
#255 = CARTESIAN_POINT('', (1.2410254037844386, 0.7500000000000002, -0.7165063509461093));
#256 = (
    BOUNDED_CURVE()
    B_SPLINE_CURVE(2, (#257, #258, #259, #260, #261, #262), .UNSPECIFIED., .U., .U.)
    B_SPLINE_CURVE_WITH_KNOTS((3, 1, 1, 1, 3), (0.0, 0.25, 0.5, 0.75, 1.0), .UNSPECIFIED.)
    CURVE()
    GEOMETRIC_REPRESENTATION_ITEM()
    RATIONAL_B_SPLINE_CURVE((1.0, 0.875, 0.75, 0.75, 0.875, 1.0))
    REPRESENTATION_ITEM('')
);
#257 = CARTESIAN_POINT('', (0.0, 0.7500000000000002, 1.4330127018922192));
#258 = CARTESIAN_POINT('', (0.0, 0.6428571428571431, 1.4948716593053935));
#259 = CARTESIAN_POINT('', (0.0, 0.3750000000000003, 1.5051814855409227));
#260 = CARTESIAN_POINT('', (0.0, 0.1250000000000003, 1.3608439182435166));
#261 = CARTESIAN_POINT('', (0.0, 1.9032394708E-16, 1.1237179148263488));
#262 = CARTESIAN_POINT('', (0.0, 5.5511151231E-17, 1.0000000000000004));
#263 = (
    BOUNDED_CURVE()
    B_SPLINE_CURVE(2, (#264, #265, #266, #267, #268, #269), .UNSPECIFIED., .U., .U.)
    B_SPLINE_CURVE_WITH_KNOTS((3, 1, 1, 1, 3), (0.0, 0.25, 0.5, 0.75, 1.0), .UNSPECIFIED.)
    CURVE()
    GEOMETRIC_REPRESENTATION_ITEM()
    RATIONAL_B_SPLINE_CURVE((1.0, 0.875, 0.75, 0.75, 0.875, 1.0))
    REPRESENTATION_ITEM('')
);
#264 = CARTESIAN_POINT('', (1.2410254037844386, 0.7500000000000002, -0.7165063509461093));
#265 = CARTESIAN_POINT('', (1.294596832355867, 0.6428571428571431, -0.7474358296526963));
#266 = CARTESIAN_POINT('', (1.303525403784439, 0.3750000000000003, -0.7525907427704611));
#267 = CARTESIAN_POINT('', (1.178525403784439, 0.1250000000000003, -0.680421959121758));
#268 = CARTESIAN_POINT('', (0.9731682609272961, 1.9032394708E-16, -0.5618589574131742));
#269 = CARTESIAN_POINT('', (0.866025403784439, 5.5511151231E-17, -0.5));
#270 = (
    BOUNDED_CURVE()
    B_SPLINE_CURVE(2, (#271, #272, #273, #274, #275, #276), .UNSPECIFIED., .U., .U.)
    B_SPLINE_CURVE_WITH_KNOTS((3, 1, 1, 1, 3), (0.0, 0.25, 0.5, 0.75, 1.0), .UNSPECIFIED.)
    CURVE()
    GEOMETRIC_REPRESENTATION_ITEM()
    RATIONAL_B_SPLINE_CURVE((1.0, 0.875, 0.75, 0.75, 0.875, 1.0))
    REPRESENTATION_ITEM('')
);
#271 = CARTESIAN_POINT('', (0.4910254037844386, 0.7499999999999999, -0.2834936490538902));
#272 = CARTESIAN_POINT('', (0.42087891752951884, 0.7499999999999999, -0.40499092721984314));
#273 = CARTESIAN_POINT('', (0.16367513459481298, 0.7499999999999999, -0.5669872981077805));
#274 = CARTESIAN_POINT('', (-0.1636751345948126, 0.7499999999999999, -0.5669872981077805));
#275 = CARTESIAN_POINT('', (-0.42087891752951856, 0.7499999999999999, -0.40499092721984337));
#276 = CARTESIAN_POINT('', (-0.4910254037844384, 0.7499999999999999, -0.28349364905389046));
#277 = (
    BOUNDED_CURVE()
    B_SPLINE_CURVE(2, (#278, #279, #280, #281, #282, #283), .UNSPECIFIED., .U., .U.)
    B_SPLINE_CURVE_WITH_KNOTS((3, 1, 1, 1, 3), (0.0, 0.25, 0.5, 0.75, 1.0), .UNSPECIFIED.)
    CURVE()
    GEOMETRIC_REPRESENTATION_ITEM()
    RATIONAL_B_SPLINE_CURVE((1.0, 0.875, 0.75, 0.75, 0.875, 1.0))
    REPRESENTATION_ITEM('')
);
#278 = CARTESIAN_POINT('', (-0.8660254037844384, 0.0, -0.5000000000000003));
#279 = CARTESIAN_POINT('', (-0.7588825466415813, 0.0, -0.4381410425868261));
#280 = CARTESIAN_POINT('', (-0.5535254037844385, 0.125, -0.3195780408782422));
#281 = CARTESIAN_POINT('', (-0.42852540378443854, 0.37499999999999983, -0.24740925722953896));
#282 = CARTESIAN_POINT('', (-0.43745397521300994, 0.6428571428571427, -0.25256417034730344));
#283 = CARTESIAN_POINT('', (-0.4910254037844384, 0.7499999999999999, -0.28349364905389046));
#284 = (
    BOUNDED_CURVE()
    B_SPLINE_CURVE(2, (#285, #286, #287, #288, #289, #290), .UNSPECIFIED., .U., .U.)
    B_SPLINE_CURVE_WITH_KNOTS((3, 1, 1, 1, 3), (0.0, 0.25, 0.5, 0.75, 1.0), .UNSPECIFIED.)
    CURVE()
    GEOMETRIC_REPRESENTATION_ITEM()
    RATIONAL_B_SPLINE_CURVE((1.0, 0.875, 0.75, 0.75, 0.875, 1.0))
    REPRESENTATION_ITEM('')
);
#285 = CARTESIAN_POINT('', (0.8660254037844387, 0.0, -0.4999999999999998));
#286 = CARTESIAN_POINT('', (0.7423074889580904, 0.0, -0.7142857142857141));
#287 = CARTESIAN_POINT('', (0.2886751345948131, 0.0, -0.9999999999999999));
#288 = CARTESIAN_POINT('', (-0.28867513459481237, 0.0, -0.9999999999999999));
#289 = CARTESIAN_POINT('', (-0.7423074889580897, 0.0, -0.7142857142857145));
#290 = CARTESIAN_POINT('', (-0.8660254037844384, 0.0, -0.5000000000000003));
#291 = (
    BOUNDED_CURVE()
    B_SPLINE_CURVE(2, (#292, #293, #294, #295, #296, #297), .UNSPECIFIED., .U., .U.)
    B_SPLINE_CURVE_WITH_KNOTS((3, 1, 1, 1, 3), (0.0, 0.25, 0.5, 0.75, 1.0), .UNSPECIFIED.)
    CURVE()
    GEOMETRIC_REPRESENTATION_ITEM()
    RATIONAL_B_SPLINE_CURVE((1.0, 0.875, 0.75, 0.75, 0.875, 1.0))
    REPRESENTATION_ITEM('')
);
#292 = CARTESIAN_POINT('', (1.2410254037844386, 0.7500000000000002, -0.7165063509461093));
#293 = CARTESIAN_POINT('', (1.0637360603866617, 0.7500000000000002, -1.0235805013515846));
#294 = CARTESIAN_POINT('', (0.41367513459481325, 0.7500000000000003, -1.4330127018922187));
#295 = CARTESIAN_POINT('', (-0.41367513459481203, 0.7500000000000003, -1.433012701892219));
#296 = CARTESIAN_POINT('', (-1.063736060386661, 0.7500000000000002, -1.0235805013515853));
#297 = CARTESIAN_POINT('', (-1.241025403784438, 0.7500000000000002, -0.71650635094611));
#298 = (
    BOUNDED_CURVE()
    B_SPLINE_CURVE(2, (#299, #300, #301, #302, #303, #304), .UNSPECIFIED., .U., .U.)
    B_SPLINE_CURVE_WITH_KNOTS((3, 1, 1, 1, 3), (0.0, 0.25, 0.5, 0.75, 1.0), .UNSPECIFIED.)
    CURVE()
    GEOMETRIC_REPRESENTATION_ITEM()
    RATIONAL_B_SPLINE_CURVE((1.0, 0.875, 0.75, 0.75, 0.875, 1.0))
    REPRESENTATION_ITEM('')
);
#299 = CARTESIAN_POINT('', (-0.4910254037844384, 0.7499999999999999, -0.28349364905389046));
#300 = CARTESIAN_POINT('', (-0.544596832355867, 0.857142857142857, -0.3144231277604776));
#301 = CARTESIAN_POINT('', (-0.7410254037844384, 1.0, -0.4278312163512971));
#302 = CARTESIAN_POINT('', (-0.991025403784438, 1.0, -0.5721687836487035));
#303 = CARTESIAN_POINT('', (-1.1874539752130093, 0.8571428571428573, -0.6855768722395228));
#304 = CARTESIAN_POINT('', (-1.241025403784438, 0.7500000000000002, -0.71650635094611));
#305 = (
    BOUNDED_CURVE()
    B_SPLINE_CURVE(2, (#306, #307, #308, #309, #310, #311), .UNSPECIFIED., .U., .U.)
    B_SPLINE_CURVE_WITH_KNOTS((3, 1, 1, 1, 3), (0.0, 0.25, 0.5, 0.75, 1.0), .UNSPECIFIED.)
    CURVE()
    GEOMETRIC_REPRESENTATION_ITEM()
    RATIONAL_B_SPLINE_CURVE((1.0, 0.875, 0.75, 0.75, 0.875, 1.0))
    REPRESENTATION_ITEM('')
);
#306 = CARTESIAN_POINT('', (-1.241025403784438, 0.7500000000000002, -0.71650635094611));
#307 = CARTESIAN_POINT('', (-1.2945968323558665, 0.6428571428571431, -0.7474358296526972));
#308 = CARTESIAN_POINT('', (-1.3035254037844384, 0.3750000000000003, -0.7525907427704618));
#309 = CARTESIAN_POINT('', (-1.1785254037844386, 0.1250000000000003, -0.6804219591217587));
#310 = CARTESIAN_POINT('', (-0.9731682609272958, 1.9032394708E-16, -0.5618589574131747));
#311 = CARTESIAN_POINT('', (-0.8660254037844387, 5.5511151231E-17, -0.5000000000000006));
#312 = (
    BOUNDED_CURVE()
    B_SPLINE_CURVE(2, (#313, #314, #315, #316, #317, #318), .UNSPECIFIED., .U., .U.)
    B_SPLINE_CURVE_WITH_KNOTS((3, 1, 1, 1, 3), (0.0, 0.25, 0.5, 0.75, 1.0), .UNSPECIFIED.)
    CURVE()
    GEOMETRIC_REPRESENTATION_ITEM()
    RATIONAL_B_SPLINE_CURVE((1.0, 0.875, 0.75, 0.75, 0.875, 1.0))
    REPRESENTATION_ITEM('')
);
#313 = CARTESIAN_POINT('', (-0.4910254037844384, 0.7499999999999999, -0.28349364905389046));
#314 = CARTESIAN_POINT('', (-0.5611718900393582, 0.7499999999999999, -0.16199637088793756));
#315 = CARTESIAN_POINT('', (-0.5728629710818449, 0.7499999999999999, 0.14174682452694484));
#316 = CARTESIAN_POINT('', (-0.4091878364870323, 0.7499999999999999, 0.42524047358083505));
#317 = CARTESIAN_POINT('', (-0.1402929725098399, 0.7499999999999999, 0.5669872981077803));
#318 = CARTESIAN_POINT('', (-3.6082248300E-16, 0.7499999999999999, 0.5669872981077805));
#319 = (
    BOUNDED_CURVE()
    B_SPLINE_CURVE(2, (#320, #321, #322, #323, #324, #325), .UNSPECIFIED., .U., .U.)
    B_SPLINE_CURVE_WITH_KNOTS((3, 1, 1, 1, 3), (0.0, 0.25, 0.5, 0.75, 1.0), .UNSPECIFIED.)
    CURVE()
    GEOMETRIC_REPRESENTATION_ITEM()
    RATIONAL_B_SPLINE_CURVE((1.0, 0.875, 0.75, 0.75, 0.875, 1.0))
    REPRESENTATION_ITEM('')
);
#320 = CARTESIAN_POINT('', (-0.8660254037844384, 0.0, -0.5000000000000003));
#321 = CARTESIAN_POINT('', (-0.9897433186107868, 0.0, -0.28571428571428614));
#322 = CARTESIAN_POINT('', (-1.0103629710818451, 0.0, 0.24999999999999947));
#323 = CARTESIAN_POINT('', (-0.7216878364870326, 0.0, 0.7499999999999994));
#324 = CARTESIAN_POINT('', (-0.24743582965269734, 0.0, 0.9999999999999997));
#325 = CARTESIAN_POINT('', (-6.1062266354E-16, 0.0, 0.9999999999999998));
#326 = (
    BOUNDED_CURVE()
    B_SPLINE_CURVE(2, (#327, #328, #329, #330, #331, #332), .UNSPECIFIED., .U., .U.)
    B_SPLINE_CURVE_WITH_KNOTS((3, 1, 1, 1, 3), (0.0, 0.25, 0.5, 0.75, 1.0), .UNSPECIFIED.)
    CURVE()
    GEOMETRIC_REPRESENTATION_ITEM()
    RATIONAL_B_SPLINE_CURVE((1.0, 0.875, 0.75, 0.75, 0.875, 1.0))
    REPRESENTATION_ITEM('')
);
#327 = CARTESIAN_POINT('', (-1.241025403784438, 0.7500000000000002, -0.71650635094611));
#328 = CARTESIAN_POINT('', (-1.418314747182215, 0.7500000000000002, -0.40943220054063467));
#329 = CARTESIAN_POINT('', (-1.4478629710818447, 0.7500000000000003, 0.35825317547305396));
#330 = CARTESIAN_POINT('', (-1.0341878364870325, 0.7500000000000003, 1.0747595264191634));
#331 = CARTESIAN_POINT('', (-0.35457868679555476, 0.7500000000000002, 1.4330127018922185));
#332 = CARTESIAN_POINT('', (-9.9920072216E-16, 0.7500000000000002, 1.433012701892219));
#333 = CARTESIAN_POINT('', (0.0, 0.0, 1.0));
#334 = CARTESIAN_POINT('', (0.0, 0.7499999999999999, 0.5669872981077806));
#335 = CARTESIAN_POINT('', (0.4910254037844386, 0.7499999999999999, -0.2834936490538902));
#336 = CARTESIAN_POINT('', (0.8660254037844387, 0.0, -0.4999999999999998));
#337 = CARTESIAN_POINT('', (0.0, 0.7500000000000002, 1.4330127018922192));
#338 = CARTESIAN_POINT('', (1.2410254037844386, 0.7500000000000002, -0.7165063509461093));
#339 = CARTESIAN_POINT('', (-0.4910254037844384, 0.7499999999999999, -0.28349364905389046));
#340 = CARTESIAN_POINT('', (-0.8660254037844384, 0.0, -0.5000000000000003));
#341 = CARTESIAN_POINT('', (-1.241025403784438, 0.7500000000000002, -0.71650635094611));
ENDSEC;
END-ISO-10303-21;
